<mxfile host="app.diagrams.net" modified="2022-01-06T10:32:34.772Z" agent="5.0 (Windows NT 10.0; Win64; x64) AppleWebKit/537.36 (KHTML, like Gecko) Chrome/96.0.4664.110 Safari/537.36" etag="X20bmGziIvz4Qqy_fDrV" version="16.2.2" type="github">
  <diagram id="4KOIVUtySA3hWEyucGAk" name="Page-1">
    <mxGraphModel dx="573" dy="212" grid="1" gridSize="10" guides="1" tooltips="1" connect="1" arrows="1" fold="1" page="1" pageScale="1" pageWidth="827" pageHeight="1169" math="0" shadow="0">
      <root>
        <mxCell id="0" />
        <mxCell id="1" parent="0" />
        <mxCell id="g6nxcl8gmdtNQCu66W4n-4" value="" style="shape=image;verticalLabelPosition=bottom;labelBackgroundColor=default;verticalAlign=top;aspect=fixed;imageAspect=0;image=data:image/png,iVBORw0KGgoAAAANSUhEUgAAAdEAAAEKCAYAAABNOm93AAAABGdBTUEAALGPC/xhBQAAAAFzUkdCAK7OHOkAAAAgY0hSTQAAeiYAAICEAAD6AAAAgOgAAHUwAADqYAAAOpgAABdwnLpRPAAAAAlwSFlzAAAOxAAADsQBlSsOGwAAAAZiS0dEAP8A/wD/oL2nkwAAABJ0RVh0RVhJRjpPcmllbnRhdGlvbgAxhFjs7wAASXlJREFUeF7tnQucXFV9x0+CVlvbQsuj1ZYGZDchIUYePnAjD7VUkqAS0ASVGKm6WxXZrTU+asACAYxB2WiAZqHUNK1CKJJ+NLsgSCmQBUFBSEgguwlUHi1tabEPSyllO9+7987enZ25938nc2fu/8z/+/mMOzu7xL33nPP//V/n3GljJVwbMm3atPCdc+1wC9rtepPIci9G1853nX3D4Xe16HaDY+vdgvA737C5kw3p/ZLNrdLsGhxz6ydNriHXM22hGwi/m0T3oBub/Mstx/f5Mz38ahiGYRSQgYXz3drR8JsSo2tXlQUUgUWYRvq7xj8YWOh6hsbfGs3BRNQwjL2CiIpoo+Zr/loX04AKiKoq/5ue0qftBJmMcTGceA2WPo0Ydn1rojsy6rZsCqPXrn63Igw6OxYtcaGMGk3GRNSQMdTTxkYOulz/SKWhi17+pnIbwnCf6yzNmykRUjCnqqUlB9zCaZOjr/ZjgVsfF9Ltu0JHpMP1bg3n3dbe0nfjDK3pK0ktdLk5ncEbo0mYiBoihjbHTd2A22wpIyMjk9OSo27tqnJSciISG+kPI6pS9LU8KYJtBxa4FVGadniHGxl/N5nQuV0Y3Eocva2uN1JWoymYiBoChtwkDS0x0HYqWjLqnfGU48TLalARWdKSI25H1FPTfepEJN/R61ZG/0Et4WhLtrtdVTyK0V3bw3cQv79GszARNdIZ2hym3Lpcd3fUwLC5DVO6RnZqpSX5PBTagnWTaqKjd+v4PYwi+IGFbn5758GbjomokUo5ldu1xK1YETUwDLhVtlgNEYK0ZJlY1iMeoRrJxCL44b41ih3cao1mk19Fy/yYiBopTBi1riWLXEfHIrcksoebtrRRzap2Y5EFUlmonpaMGOqJGo1K9ztqPW1bYp24bq6babXOgIGFxRJSE1EjmVgqd8kiVnGHWzShom6LBaNGgxjqiRpkSrOtf0ObN8iMurXzO135LIYoKh9d6+aHEVnNtG3XHOdDg260B3biNeLK22EL1JNhIpqRpFRDWi0CIyH5vSIRT+UGGlpiYk/asNtkKmo0gMkCOuK2tpWCsqWn0p7EBDQelcczQX3LJ7qdh3om7h8Zo/G3nhFz4Mu19dZjItpAhvs6a28sj01yNZS83vIuhHCvX7DAO6M9aQSj7ZTSNeojOS3Z3gKaTvdgfNtKh+vdENsGFHWMT9xAt8Hb+zcxj4rkKJiI1smUVMNguarvlldEmkEEqk5BS1N2y6ayWNakdL3WVW/UpkZaMiQuoKwpE9AYJUEcKdmWKTX3jl63ddLWoXFwQOIHMGiH2mfV6LxgjoKJaKNYsL58fuVEdxwGZGIjdFeYidBBPHpIpv32jBrVyZCWLMFxgWXfsnuw7Rq0yttTar0SBTG2RSh8tY0DUjDH3UQ0E8kjN1ErnNyBGHiIYxvckvB7FYxucWUN5ckQFQs2XuT3ec/ohKGzk2D2lslpySG3ZkJdCTsqxJdXOx4vaURMbSyaOGh/YGFx5oaJaCPpmOnmhm/HGT/nUqOHGE/ldp9aLUSIFflLEYgFo0ZNqqUly13fhiGno3dlmMZO3irVTExEjSrEU7ndrqqGlog/OWJgVbufc9q+1JWWXLC++u9OetnB/kYFBXS+TEQbyeiukn/kA7EnRSQZsqDBIfw9jxoaDMNoPVMbi0qvchfaysKUV0xEG8nIjjAFaqeLGIZh5EHQY1KgLjQT0UbBSSKhl9TVv8LSUIZhGJmZ2nVc+Spaj4mJaJ1MSTVEBxB4vdnZMAzDiGMi2kB82+xsGIZhJDOtFB6Phe/bCqLHiHa4Be12vUnYvciG3a9s2P2ajO/3wyJRwzAMw6gTE1HDMAzDqBMTUcMwDMOoExNRwzAMoxgM9QQ11FqvngIeL2oiahiGUVjGnwQ1SUxqPbPYaAkmooaRQvA82BTjVf6d8DW/4pmyhpEZDnCZ9Ci5kOAB+Z4+4abKmcrRo5rZgx97kl5hMBHdCyLDWc1g8qzEuFGdVsQ8hJFK/KHR1Yk/M3aC4b5OG3NjrxhaEx7gUqL8WLCyogy4Ve3gqA31hGur2w0WdA++iWi9lAd3Khjezkr3keclmlHVQxAFpAkov7Y8jBS6XP9IhaErjbkNOUxNSdp9SWPU7YqeZhGPwBacGj4KrOSo7RgJ3/lKad6sGl+ART5K1US0DoIItKZ1HXKbwx9N8R4HVjmNzmM5VSmoxWT53aISZBGiYxwTiT0yLv5UiQUryg8sH2j7B60OuZ4qKcng2ExTUiOJoTXhvOl2Kwt8lKqJaCbiqbsu1xU9TDNO+Xl3sedwlr3HYafNeUxPZ06Q5Xd10O0Gx0bKgjiVEbcjFIeuOZ3jbwI63Mzo6ezbd6l1JhrBUM/CcD1EkXrsflqknkDsoffDfW5NdJ9iz9Os/rB8X9ARhYKJaB0EZ+SObXBLwu8nUS6Mx57DWX7OaJebZGuLjDCdGZDld7XQPTh5DKsheX7s8I6S1LYrE1mZiUi9w/Vu6J94mHvbR+q14WHnE5WBMMMTLjJsUIGeBtZ4Rre48SRPl1uyqNinkZuIZmL8YdXZHsVT8qiWh6nBAj1INgl5OjPb72oB41Wk5xWqJeZkTIrUO2a6KFBv90g9mVhdtILhTVv8vm/Rs5m7lriCa6iJaL6Q/o3qQd1uUJ1hTktnxsnyu0Z70+nmRPOkrSP1JCpsR5DdKr1GwiiebS4e58KHohTG3JmF7MiNYyKaG5WLICU1WDQk6cyILL9rtA+xiHNyJ+lELdmoQTmdSeo2VhPs6HUro/bcgc1+7hWNReCTew2KiYloLugW0CzpzLZOfcbTkrXomlOKu9qVBe7UssGf6EyfaDYyjGTmzix+/ctENAeGehRHoEYGJtKSk2tUsVqWgnRUnixYETURDbu+zvHmGL86uHMiHsX3LZ/YGje61oVNqx47aOO9J6SvNfjnJqKNJj7JS/72QjrqYi9r6feJ+DaETW5LZOjK+9tKbpTX2xAEdPS6rWODJXcyRvdg7Ci3do7Uk1jg1pdv0oQDMtHE1+X6NxTzBJ92w0S0wYxu2eRVp6qRTEfvhrCZKmboolCrJBbW5AslQYgaY3itdxNbX9o8Uk8k2C5X4YBAV78bGduqotO/HTARrZuJlEN8y0tQI4wbjIqXGVXfGJ8H5aAhJNhL3PaDTW9A6FjEDkwfXbtq4gCGIp4oXigqHBBeBT1Dtl0xETWMRCacpSTjtWB9zMiVXtn2EvtK6d5NtJKWSxvRudJd/RssmjLUYyJqGEZ+kJKM9jaWGT8C0BwNwwdMRA3DyJeguSgeqVs9z/CHaaVJPRa+bytIK0W0wy1ot+tNwu5FNux+ZcPu12R8vx8WiRqGYRhGnZiIGoZhGEadmIgahmEYRp1MO+KII8aeeOIJ94pXvMK97GUvc/vtt1/4I7/gGg888ED3yle+Mvh+586dwVeYPXt2+E438XpDvA4Bvl3vk08+6Q444IDyePpINJ6VY+kTXOPPfvYz9+KLLwbj6TPtMJ6wZ88eN2PGDLfPPvuEn/jDc889F3x9/vnng3E899xz3bTSxY4988wzbunSpW7+/Plu48aNwS/5zp133hm+c+64444L3+nlhRdecKOjo+7ZZ58NhGXevHmBY2To5Oc//7l74IEH3EsvveT2339/N2fOnPAnhkaefvppt3v37uD9rFmz3EEHHRS8N3SxbNmy4Ou6deuCwGTVqlUOj2Fs3333HbvmmmtKjpKhlaeeemps8eLFuLpjr33ta8cef/zx8CeGRrZt2zb2qle9KhjP0047LfzU0ErJ6AZjOX369LFSoBJ+amjlXe9619jLX/7ysdWrV49ZTdQwDMMw6sRE1DAMwzDqxETUMAzDMOrERNQwDMMw6sRE1DAMwzDqxETUMAzDMISwrzmOiahhGIZh1ImJqGEYhmHUiYmoYRiGYdTJ9P/6r/8K3xqGYRiGkYXpHDpvGIZhGEZ2ptsh5YZhGIZRH1YTNQzDMIw6MRE1DMMwjDoxETUMwzCMOjERNQzDMIw6MRE1DMMwjDoxETUMwzCMOjERNQzDMIw6MRE1DMMwjDoxETUMwzCMOjERNQzDMIw6mTZjxoyx5557zl122WXurLPOCj8uFv/zP//j/v7v/9498cQT7j/+4z/c888/71566aXwp8Vj2rRp7pd+6Zfcr/7qr7rf+q3fcoceeqh7+ctfHv40H55++ml39tlnuxtvvNG99rWvdbfddpsrjW340+IwNjbm/v3f/93t3r3b/cu//Eswni+88ELweVHhfGnG89d+7deCe/sbv/Ebbvr0fP3P7du3u2OPPdbxgIjTTjvN3XDDDeFPigXj9g//8A9uz549wcOK+XtffPHF8KfFg7X5C7/wC+5Vr3qVO+CAA9zs2bOD93lz+eWXB+uTebNhwwZ35plnhj8pFv/7v//rHnvsscDW/ud//qf77//+70LbWu7nL/7iL7pf/uVfdr/927/tDjvssGC95gnzfNmyZe6mm25yq1atKraIMohbtmxxd999txsdHXX//M//7H7+858HRrfoIvrKV74yMLwHHnigmzVrljvllFPcW9/61twGWIOIPvXUU+766693Dz30UOAUMRkZTxZukdlnn32C8fyVX/mVYKG+7nWvc+973/tcZ2dn+BuNp+giypjdf//97vvf/34wnggpfytG9//+7//C3yoerE3WIIZ33333dTNnznRvectb3KJFiwJRzYuiiyjO7K233uruuusut2vXLvdP//RPwVgSwBTd1nL+O7aW8ZszZ447+eST3XHHHRc4S3lQeBHFs0Uk77jjjmDiPfLII8HiLPJApoER3n///d1JJ53kenp6gsi00ZFMUUWUcSPiRAQ2bdrkfvrTnwaZhIgoAmUxaIHF+Zu/+Zvuox/9qFuyZEngBTf67y+qiCKQIyMj7k//9E+DNfqv//qvhXeCkmDcMMCHH364++xnPxvc8zwc3SKKaGRrCVL6+/vdo48+GgQu2m0tGaN3vOMd7pOf/GRgCxu9NitFtFA1UQaPCOXiiy8OJtx9990XeEiaBxUwPHh2f/VXf+X6+voCD74dYNwYw3POOScYUzzcuIACE1yTgAKGh3l60UUXBYuIKKzI6ehGQRp+cHDQLV26NHCI/vEf/1G1gALjhqPy4x//2HV3dwfOCkLiO6zNJ5980q1Zsya4btYp4+uDrcVpv+6664KA5Sc/+Unua7NQIophWr16dbBAfZ3IO3fuDIwvNQefYTHefvvt7oILLnBbt25VvzirQaqLcsPAwID3hvff/u3f3MaNG90ll1wSGCkfQUSuvPJKd/PNNweOkq8gKo8//ri79NJLA8ceJ8JHqO3ivBNh50lhRPTZZ58NxIUQmSacvPLZrYS0EddFJMpipebgIyxSaisYXCYwtUTfIHrmujC2eL233HJL+BP/wMhyjevXrw8ENEpfa8sgpEHJBef2z/7sz4KUta/ZBfoQyKDgAGKP8m7EaQWRrSXDcPXVVwdOYF4UQkQRE3LyFLYxStRoMVCNrhu2EhpTeOHt0r2It0uk5ttC5XqoY3/jG98Iou6o0YROZe1wbbwQD+ouRKIYJMaUmpevThE1s69//euBoxtFLTTm+AJ1tF//9V8Pal2UG7Zt2+a+853vBOPrG6Tfv/a1rwW2lvlKTZuGHJ9sLd3WCCilQMbwBz/4QeDU52VrW37nEBQ8ou9+97vl+gpGFyHF8PowuFGnLhM2GkhqpIiob6kUrudb3/qWu+eee8rXSqoT4fFBSPHa99tvv+CacPiiayR1RL3QN+iIv/DCCwOBicBx4D7kvW2rGWBsWZs4QpH9ofSwefPmYL36BNdFpo8OeWxs9NkzzzwTOBE4E9pBQOnWRT/itvbOO+8MPsuDlisUTRnf+973gsUah0HGK+SmaE0b4QBEaYXKBcnkffjhh4NuVZ8gDYYXX1kDjYwwqUCtIBpsi8BRqGyoQVCp/frGtddeG+wBjcPYsjYZS82Gl7XJmOIUVO5tpWmKDmmfQEzo3q+0RYgNTgT3Q+t4ohHMR8azmvNDCQ1nIQ9aKqIsRlJ/9957b/jJZFioDDCDy9fIs9AAAooDwN9MWqEaDKpv3i4CWsvjY6Ey2bWmAknhRhFoJYwz+2B9yizg4LIPtNIhApwIrjXPvZV5EtXpo3JDNR588MHwnR+Qpn7ggQeq2lHmNPeBKE4b2NrIOa9le9gCmFfz37SDDz54DOPWin2ieIDnnXee+/a3vx1+Up2o/qTBAOPRcl0MKuJZGbHEQWTXrl3rFixYEH5SP0XYJ8p1c6BEkscXORcsWFKCROlFBkcOA0MqGoenmqBEcAjDFVdcEdz/vaUI+0Tpkqe7Oqkpg/E86KCDAuPF2ixyJIN4cD8RCtZpmsOzePFit27duvC7vaPV+0SxRdRCr7rqqsRghEwLtpZxpAxV5CwgNoQxZN7xN7NWkyCrgn3a22uacthCyZMcw9C3QkRZnJz8QgNKGkcffbQ744wz3DHHHFPobjK8d4wPNZUkgwuICQ0bnLCxtxRBRIeHh92HPvSh1AYbJv3b3vY29973vjc4pquoYGgRs29+85tBVJI2nvPmzQtElMM09pZWiygGiu1mdORWpjorIRpFFE444YSgtlZUcIYoHbE+WadpnH766cH6bAStFlHsQ29vb7BG0zjyyCPdBz7wAXfUUUcV2smlBEgARj9NtexQJYx7V1dX40X01a9+9RgRRCtElIl8/PHHBxFMEky8888/3y1fvlxFzp6b+5GPfCT8rjZENyxSTjLaW4ogohhctrUkRd+AyHz5y1928+fPL7SnCwjIypUrg/10aSKK0eEecF7y3tJqESXq5rr/5m/+JvykNieeeGIgEjRcFR1q9hz+wVGFaSB0OBKNoNUiynW///3vFzkPf/zHfxyc9qMBnAICsTS474goRzzuLZUiOr2VngbF+zQBBWqipMq4ERrgnkrEgYis6OnMLLDHrlZ9KQ7nzyLwRRdQIOshnXekv0iH+QAiSiOKBA5x1yCgwJyTZrK01nurQXaosnmzGtwfAhstSMcSDckrg9lSVeJJHhJIESE4Gowu0HGbVHeIwPD4chAB10stNC1aAza189IAdRbqfZLrYjxJ0fsAfRKSDeqsyd/5nd8Jvys+jCf7XSUccsgh4Tv90PSWlpYHsmOatqKxtUwCfTU4uXnQUhHlmD8JkYhqQXqkn08iiqcrMbpEdVw3nqEGiMgk+8u4Lp7Yo8XRS4NOxvje0FpoFFHp6TU+iahUbIi+i9xzUol0i2CeGtJSEcU7kkDUkpcXkQekqSXgHfkioqSK0rodgX1cWlJ/gIBKxIRaPc8Z9QXKLLW2ZlVShKcFSYi6cyXzFCF5zWteE36nH6nYIKKaDtHgEH0JeWpIS0VUUuQGPHwtkQtIag+Ad+RLDY0zVaUiqiWVCwioREyIRHk8mg9kFZtGNFI1A1LyOLiSuj3rUpPjngaNhxJwBDWJaBE0pGUiykKV3oBXv/rVampNGF1p+g8R9WWhSiNR9uhpEpsskaimtGYSbBfA6Erq+hgnLUYXEa08fakWiImGnQBSpCUmHCItzY6Mp/QUojw1pGUiindP80IaeLqIjZaBxdNN2ycJiAlpTV9qaNSZpNetKe1JbVDSQY7BPfjgg8PvdBOJqATGUsscxuhK0384er6IKM6QtNNak4iiH5IsERpC6Syv05haJqIs0rT9hEAxWNN5q0xWiZgQgTKwvkC0JnnqhaZIFKOLiKadhALanIMkEFFpXV9T3ZDxlGa/fBJRhEYiNmQUCFi0NBbRU1MEDWmZiEpvACG4ppZr0pqS0zMwuppqg0lgnKQiyoTmmDgNcD2MJ9eXBg6RL3t+mb/SyIU9v1ogIpOm/4jIfBFRUrmSOYyt5aUls0AgJtm2Qy00Tw1pmYiSVpHcALpX8Y60gNGVRC5MVl8iF6I1GoskNTQEVIunSxpXmv7T0lwjAedWKjaNOCe4WdBQJL0utrdoarBJYnR0NHyXDM1UmrJ+rE1JIMY15akhLRNRJrNURDVtiaA2KIlENUVkaUQiKkFTDQ1nSHpdvomodC+llu0tQJNYllKL9KSqooPYSBxcbSJKwFIEDWnZLME4SVrNCcO1pD0ZUNKaUu/Il3QuIio1uppqaKRz21FEGUtJNgVHUFOW6PHHHw/fJYPN8Wl7i7QOjNBo2rdeFA1piYhy4SxUSZ6eG6BlLyXFe+nzQTE+vqSL2NoiFVFNNTREVDqemiKyNKRio60OLD0hDXuDg+AL0hQ2NinP2mEjQUNYm1IN8S4S5eIlRpfCvqZjqLgmidElncm+JV/IIqJaamikv7KIaEdHR/hOP9Izrdkjmte2gTyQOgdELXntKWw2ZMekIoqt1SKinH8s3b/NeOYZsLRERLkBpADTQDw1pTzZtyQZWETUp9NtqDNJWuhBU8TGPJV0HNP9p6lun4b0OE6MrqZIVLpth4jMFxFlDksOQWEcicC1dCRzXdI9onlrSMsiUcnA4j3g7WqBQZUcIIGI+lJDI51CFCpppkJstKTmIcsDEnzZDgHSGhqNcZoiUamI4hxoarBJQnr4CyKqrYFTGojlrSEtEVFugFRENW0D4Zok3hFdf74cEUcTlTRyYTJr6XgkwpaKKNelpeSQBtctFRtKEloacJinRC9p4OAior7URNnvK2kSYxw1Zf0IxCQniaEheWf9WmLRaDWXphi0HKWG8UFAJd4RUcuhhx4afqcbai5SsSH61rRtQFpDQ0x8aRJDbNg6kAbjiHHSEokSXUtsDmJCROZLZkG6b13bljvKZtJALG8NabpFQ2xIeUoGFhHVsiUCMcHTlexbot7iSw0No+vjEXEgTWv6JKJZToFhO4SWPb/MUen+bU0lhzSy1PW1lM4iDZGmqfNu4my6iDKRSedKFiqTWUttgomapZbkC7SaSyIXwCPUYnRZqNKuRiJsX0SUI+Ike+9wBDG8WkBEJfu3fRNRIjap86CldMb1kM2UzFMcvbw7jpsuooTgUqOL2GgxuohollqSLzCRpQcS0JmrZTwxuNLtSqQ1famJIqI4EGlgmLRshwAcIomY4Bxoqg0mQbaPgEWyl5LMmJaAhZKZ1MHFMci7hDRdouaNJMsN0NTBmkVEfXlkFpBSkYhN1EylRUSph0qMD4YHb1dTrTcJjoiT2ASMrqaSBA02kkiU8dS0IyAJBFTaTKUpYCEQy/Jot7yZLqlNNhI6qhhcCZpOt2GBSiMyXzpzAaMrPTWEpg0tC1XaLMV1+dLJCTi4kkiUlKeWtCfXIy0h4RDRnesD1A2ltlbTLgip4w7N6MOY3uzuuijFIEFTxIaISq/LpyPipGLDEXGaziMlrSkBIfFlYz4QuUhElChUi4jiuFMbTLsuHDxt8zSJLPvWNTX9IaLURCU0Q0OmN7uWk+UGaNoGwkKVTFjSfj6lc7McSKBpY75URDG6vmzMx+hKHEG2f3DdWsaTqEVic1ibRKFasiVpMJ7SE9S0ZMdwhLIEYs04ZrSphRxuAAMr3d+jqSa6Z88esQevqasxDanYkC7SlPZkq4cEjK4v3ZykciX7nNk2QPONFrFBRCVignOgKa2ZBmOJvU0D50FLwIKN5bokGsJ4NiUSDb82BRoWME6SGpq2p5z89Kc/Dd8lgwfvSycnSJupaNbQkiZjoUo7yJmnvkSi1PSle++4bi0goBLnAKPry5nW2FgEVNLzgp3Vct1cFyekSQOWZmhI00VUGrng4WvqeJReF2KCEfIFaZcci1RLBE5aXuLBY3RZqL6MJ/VQidHlejU13zCeEhHFufVl+xnbeVib0oBFS2o+i4bQccwazZvCiiip3GbcgEYhvS7ExBejS51JUgfGG9QUgePpSs7lJLLmunypoRGJSq9bS+RCxMIclaT/mJ++NP2x5Y7OeQmaHIcsGsIc9VJEpbUmRFRTJCo9rYguOE0NNkmQwpYec6jtiDjJUWnUeBFRX8Apkl63lm5OIjHSuZIIm0yJLzXRLPvWNW0ljNK5EriuZmhIU1WKG5DliDgtkSjOgXSPKF6fLyLKZM4iolpgLCViQkTmy+k2jCNiIznVhxqwFucB8ZSuTVLUmrJfSTCOUlurTUSzXJd3kSg3QHKCBtByrSUSpftPkgaL0pq+LFSibxyINDC6mjpYmaMSMSEi80VESXdKN7BzzVpS8zRKSU9I8+lMa/atZ7G1WkBDpE4R1+WdiFLolnT/kVahYUNL+o/tLRIxIRpDUHypoUlFlFN9tHRzUkOTRqKMpS+NKEShUuOkaWM+zq1URDVFZGkwf6VO0WGHHRa+Kz5EoZLUPFkibE4zbG1TRfSxxx4L3yVD1MJN0CI2FLolLdeIiS/bIYAJjWeYBg6RFhElrclGbqlz4EtNlG5kqdHVtH87SzrXp5PEWJvS+ram7UpZNIRr805EpXspMbqIqBakhW6fRDQ65jBNRJnEjKeWmigRmeR0G66LtKam5rckiNi4dgmaTtxCSKSn2/h0pnWW4zg17VuXakgUiDWDploAacs1nhFehBbogpNEogwsQuoDGCbJ9hZqEoioljowQiIRE0TUl6d9ADVRyXiCJhGlti11Dg455JDwnX6kYoMjqOlQmyJqSFNFVLq/hzZzLREb4kltUCKiTFhf0n/UtyUHErBANYkNKU1J5EIEqimtmQRzVyqiOA8dHR3hd8WGLAkOrqRJjEyJpua3NHiUnwT2Uvp4pjVNYs3SkKaKqLTAj9HV8mQMFqjE6GJ88I58SefS+SfZwK5NRHEMJGLik4hGW7Qk25XIpGhZmzgH0rSmT9tbQFpi0nb4S5ZjRps1T5smotLaBMaJiE2Ld0QBX3oaCp6uLzU06obSc1Y1bWDneDjpOau+PI0HR1BqdDU5RIioNHLhunwSUelxnJr2raMhWfoVvKuJSk+B4cJJrWgRG+m2HSaqL6lcYDJL9sYiolq2gWB0uSbJdTE/fWlEoUksy4lbWmA8pc4Bjp6mBpskpAELYkPaU0skSiZTsr0FW0vGpFlOUdOUirSKpDZBCK5JbHAOJCKKc6DJi08C44SISvdradl/h/FhoUq2t9As5VOntfQ4Tk2OQxYRZY5qarBJgnqo9CQxxEZLwJJFQ1ifzaKpkSiLNQ0OWtBU4KcRRSomvoho5OlKxUbL01u4LmnNBQ8eT94HMLjSo9QQUS3XjYhmOWjBl0iUzlzJ/m2cQC31bWAspRrSTBGdNmPGjDGiissuu8ydddZZ4ceN5/rrr3fnnntuakcnG55POukkNUdw7dixw33/+99PTQG+6U1vcpdffnlu6TAiibPPPtvdeOONwdPcb7vtttw2j1Mz/MpXvuL+/M//PHWxvuENb3C/93u/F35XbBDR22+/3f34xz8OP6kOIvLRj37U/cmf/En4SePZvn27O/bYY4N6+2mnneZuuOGG8CeNB8dh6dKlbnR0NPykOmwZOPnkk93hhx+uQkhx8q688srURjEyX9/4xjfciSeemNt1sfZZn0R9GzZscGeeeWb4k8Zzyy23BPMzLRqlMe6d73ynmifyPProo27Lli2pQcub3/xmt3r1atfZ2Rl+0ljYMrVs2TJ30003uVWrVjVPRPn/+NznPue+973vhZ9MBe8BoyzxNooCiw5vLsmTx3u/6qqr3OzZs3PL0zdTRBmjn/zkJ+7zn/+8e/jhh8NPp0KdCaeJiEALZAxIGdVqFsMInn766e6P/uiPcm0saqaIcr3XXXedu/jii2sKDt49tSZJ1qVIUO/DOar1d9Mx/6lPfcp94AMfyDU930wRxcnF1m7evDn8ZCpcK5E390YTaERS/R7b97Wvfc0deeSRuaXnK0V0n9If9SdMMDzMo446Kvy1xoNxOuGEEwKjW3lMHsLCZI6aOvCgtLwQfCYiKejKCckCPv744wNveObMmbnWHhCrwcFB98gjjwSe9fLly3NLaeA40Cx0xBFHuHvuuWdKxxyTl/9vDDJzq9p9K+qLv5fGNuZkZf2F+9rT0+M+85nP5J4poWHt6quvDuYXzheRYl5wrUSXCCXOUaXgYHBZv5Quqt2zor+4Lhy/yqwJTiaOA/c27+aa++67L1ifrJ3Fixe7efPmhT9pPFwL0Rj1YI7Ji183Y00dlM+wGdXuV5Ff6APbkZijcQ3B5pDtGxgYcHPmzMktWAHsPMEKmZu3v/3tbnozoz6M08qVK4MBjgQl2vqBx125eLVA2oi/ncUapYNIfb373e92559/vlfHicU5+uij3Wc/+9lJW1gwttwHvGFJE0DRYGGyBxZDxHVE4BT09va6j3/8415tyo8gyjzjjDPchz70oUkePALKz6RPBCka0drkOiKbwxqdO3euu+CCC4J0po+wxaOvr891dXWVBYVx5T4kZVqKDuKPcx4fz6jM8OUvf7klTYzTm2nomLzkqT/96U8Hni+DSwSqWUAj8E4YVAaU6yTcX7FiRfCEhEhYfYR65yc+8YkgSmNiIz6Mp0YBjUPUxbUwnkSdOAtE91yjr+DkfuxjH3OnnHJKMGeJWHBytQpoBGsT+4KwsEZx4s8777ygBuorjB/ZL7ImRGaMI+PJTgLJboIig23BOcJhZ41SXvnCF74QnKQVCWszmY6RaCYMJs0m1JQQVLo8ozSoZrEhgkE8MLKf/OQnAy/Qp0cr1YIoZcmSJe73f//3g0lNBEraRSvMwWgeci2MIdmTZqT8igBOLXOX0gtzWnrubNFBOIhgiDwvvPDCQEixRT6DoLz+9a8PsmHU7xlL7c4tMC9J66JdH/zgB4PeDFLzrdKP0n1urnITjtMEQ4MRg6pZOCtBUJikDz744JT6qK/gEdLNSlcr730aT5wCHCO2DGh2DLLA9d5xxx1B13lejRmtIEpl7tq1KzjEPF5P8xWukW0hNI1ha31yGqJroWO31ZF1UxUUAWVx4gnSqkxrPSkGjJV2SIUxsBTr77zzzqDbWbr3TiuM58033xxs9UBI8Q65D9qFlL8fg8t44vDR4PPXf/3X4U/9hfNzv/nNbwa1JRqbcAhZn9rBueU6iER3797t+vv73f333x84fb7C2kRgqPvSBIOIUuPnXmiH6yAKpaHxhz/8obv00kvFh4XkQVNFlM5cahHsq2SB4ilxI9giojFVxt/PixQYX0n/RQuTLQkYJF/SYZXQkPad73wnaPGO9hcSffN5Xl3BzYA6PY4ARF3HfF27dq279dZbg+99BIeWbRi8iEaB+Ywx1rQhvxIi0EhAoybKbdu2uTVr1ojP1dXIzp07A+cWJzeqIeLgcy80Zxj4+3FymaNcEy8CMvasS446zIOmiCgXylYIGoruvffestAAaTKEhpvTiqLw3sBg0m7NJMXgIKQRDDIDe/3116sv5MeJnAX2urE9oPK5hdHk1iikRJ4IKM4A1xiHyOySSy5xw8PDgbD4AuNJyo/s0F/8xV9Mcfq4DxhdjdkiHCKaiWgSi+9CYPyIYKh1a9vHnAZrj2CFva9bt24NbFME94B7wclp2rJF/L00L3J9ZLziGsIcZe6Stm5Fg2ruhy0wcESeRCxJD4plobJVIooCig6DiGBgdCoNbhy8eLze97znPeEn+dCswxaYpMwVUpxJE5YJj4OhpQ6DISX9zngm1T+POeaY4DQU9m7mSbMOW2DenHPOOe7uu+8OP5kKzi1jydrUkjFCHBGQpKeZcF00xRGx5W13mnHYAjaJ3gROhkt6BBx/A7ZBi2PEdWFrKDcgoLVgbpKqz9vWYiOaemIRXi4p3KSTiiLY68NJGxrgRpKLv+uuu8JPasP+u69+9avhd/nQLBHFKM2fPz9xMkdwNCCd2Bq8Xjx0DGrcw60GtVJSu8zVPGmWiK5fvz6ogcYjlmrMmjWrvGVLA9dee20gVmmRCftFr7jiityvqxkiih3H1krmCocEILYaIE3L/fvBD34QflIb1gpHOOZJ00V0z549wXYW0rhpsEctz/NIGwlHT7Gt46GHHgo/qQ1pbO5BnjRLRGkM42zjNCj8f+tb33JvfOMbVYjoj370I3fqqaempvbIlrBW2AKSJ80S0S996UtB2SHNeeBvIaPC3NIAduSaa65JvS5OueH68y4/NENEyfSxX5JoNI0Pf/jD7qKLLgq/KzZE1ex3pZSSBnvWv/jFL4bf5UOliOZehKQeKN2srelkH1J+0u7bQw89NHynH44Rk4BRohNQS+2Fx0dJ4LQiXw5ciFLYkhov102KXgOsTQKDNAEFejF4+QDNU2RUJGh6LiwaQipXQh6BQxq5iyjpFOnAavFygeYTyXVF9QdfkIoNDR3xY/OKTuV5zrVASHwxuqRwmcOS66YDXctxh6T/pGuTJhu++gB1YJyHNHBsNdkkRLTIGpLr7GFxcgMYXAmaIlGia8mBCkQtmrcIVMJGdQkYXU0dnUlPhohDhK2l+S0N5nBSU1wEzWFctxaxQUSJytJATLQ8clECfQqS8QQtthYNwc5KxpP52ZKzc8OvuUCaiHSR5LQXhEaThy+NyIhcfDouTio2dHM2+0jJvSGpizOOpogsDdYmNdc06JznurVAzUpidNkCw9OIfEEqojgPhxxySPhdsUFESeWmNb4B+tGK7FfuIiqtoZFW0bIdAmiYkoCn68MpIcCEloooD/rVks5lG5ak5oKnqy3CToJIVCKizF9NEVsWEeXB1D4QzWGp2GjJpqAh0oAFDWFMm03uIpq0NzQORldTbUJ6XRgfXyLRqIaWBuNIJKpFbDitRyomZBa0NEulgYhKtioxf+OPuys6lI8kERkG15d+BdYmzw+VgK3VMoezaoiXIpolcmnFDagXDK8EjI8vkQvbaCR1YNK4eLpanCL2MktOlWIctXSoSqAJJW0fJeA8sD41QLYEAZU4B6SpNXWpJoGISm2SlrEENAS7I8FLEWVCS2tNTGZN6VwMrwRqLr6IKJ6upL4diagWqA1KxURTbTAJ1iYRm8QpYv5qqR0iJkTYku0tOESa6vZJsC6ltlZTCjtLCYnraoWG5B6JSr0j0ipaIlEMLgs1DTxdTUffpYGIxs8grQUCqunsXERUIibUeDWlNZOI9t6xRtNgLLV0mHNdWbJfvpAlEtXSVATMT2nAQsexdyKKpyvZ3sKF4+lqEVFy9JKIjO0tvHypobFIJdeNiGqK2KjztpuIsi6lG9i5Zi1zGBGViolPD82XNseBpv34jKdk7ysBC/0n3qVzERvC8TTwckmraFmo7JWUePBcl097RFmkkjQZjoMWEWUcWaR48mkwlhwi4QPUDSXZFNC0DQRnSComvnTmAjVgacCiKQKXHoKC496qXRC5imjSkwTisO9OU91QKqK0kvtyug1Ia01csxYRxdNlc75koVJDw+P1AbqRJR4+aBIbnCHp6TaaDndJg1KL1CZpsrVZNKRV9e1cRVS6vweDqylik05YakmaaoNJsO9OYnTpyCVa07KtR3pEHFkSXzo5ARHl2iVoOfsZR4hIVBphd3R0hO/0s3v37vBdMqzNVkVs9SA9Z4DratWZ1rmKqHTfEjdAk4hS6JZGLr6IKCkyabqIZiotqXmcA4mYcD0+nW5DBC4ZT9D0AAWuSbLnl2iMzfm+IN1LyTVrElHpMaOt1JDpkoaKepF2VWF0tYgoESiCIhFRBFTTVo8kiNayiKgWuCbJ6TaIqC+NKMxhTvVBSNMgfa2pmUoqJmS/NO1LT0O6l1KbiGbRkJZFopJuy3pAZNg6IIGB1SKiGFyJ0UVMEFG++gDRmnQDu6Yj4ohaJM6BTyJKJydG18c6sLSE5NPWM5B2JOMQaRJRqYa0NBLN63xTNv5K0irUzjQtVCar5EgxJqqmiCwNRFRy3YzjwQcfHH5XbBARaSRK1HLYYYeF3+kGx1kasVEH1pKaB6mIkprX5BwkQWYhy7YeLQdMSEtI2FoClladkDY9rwVCPVSybYDaBB1jWhYqnpH0vFGfRBShkaT/uG4t3ZwYH65LcloRXq4vT28hEpUaXcRGy9rEKZKmNX0SUUotkoAFsWEOa0ljZzlmFBFt1TzNTbpZpBIR5QZoMk5MWImYMGF9aVxgWws1NOleSjILGuB6pGKiKUWdBuMprTURuWiKRKXjSYTti4iyl1KyW4C1qaVsBlk0pJUNnLmJKOlc34wuIKIS7wgR9cXwEnlLN7ATfWvxdBnHdjwiDhGV1ppIzWuKRKXX5VMkKt23Hp2gpgWphlCSbKWG5CaieLrSc1a1iA2LVBqJ4hz4ciIKdQmph6+p+QYRlW7D8uWRWYBhkjhFiCd1YC1P4yH9JzG62BxeWq4rDQ4kkByCQrTWyogtK9gcDRqS2yxCbKTny9JZpQEGlLSm5LpIUWvy+pIgEmU8JWjaS4nBlW7M9+l0GxxcyRwmTaapX0HaVITR1fLAeAmMp6TTGpukqXRGM6NERLGzrew/yUVE8fARG0mKgQmt5Wg8ulOlYuJTDY3IW3q6jZbOXGCBSkVU05Mv0pCKDQaXsoQWqA1KwN5oqg2mQQpbYms1RaJoCCekSa6LedpKpygXEcXgZjkiTksNjU5OqYj6VEOje1V6zqqmtCciKnEOiMR82SMKWQ4k8FFEqZ/5kiViDkttEgKq5boJwqQaQhTaytR8Lv/P1Fu4CWkgnppOQ0FEpQ02vkQupIlon5eMJ2Kj6TFL1EMl6SKMrqZDu9OQHupNNkXLnkKQHhGH0dWU1kyC5hvJXkq2nhGwaKkDY2clIsqBGa0OWHK5o1y8ZGC5AZpElNqgREzAlxoa6RTSRZIaGmkyTbUmqZgQkWk5UF+CtCOZLVqaRBRBkcB4UkbygSz71jXtgpBqCIGYlyJKxCbZ/MsN0NSIwjVxbRJ8iUTp+pOmyVqdVslKluvySUSle0RxcLWIKHV7SeSCzSGtqSlNnQQRm4+Hv2BnJSekMZ6tfrpSLhYPD0IiokSimo6IY6FKr8uXx2YRiUrTZHiEPoooYuKLiGJws9SatKSxcQwkYoJ4IqJaOo7ToKYvPfxFU7OjVEMQ0VZrSMMtHkYXL0IysBgmLSJK7Yx9aJL9WKTBfDncOkskSvMNk1oL0utiv68vkQtNRZI6MGl5TdtbWJsSm4NTQDrXF+gulxxbyXVrOo6TspnEKSrCdTVcRGlNJsUgaU3GI9SSLopEVIKmOm8ajKO01oSIaopEpddFhO2LiNJMJalvI6Ka6obUBrE9aWBvtOxLT4PsGGIjuW7GU0skGu3flmgIDlGrA5aGWzy8B6lx0iQ2iKi0IUNTnTeNLEfE0UylJRJlnkrq21FDhqYIOwlOgZFkU9gKoWX/NuC4S4+I01QbTCLaeuZbwMLalNbti7CVsOEiSkpFKqKa6oZ479Kj7xATX2ouUrHBG8TT1RKJktaURGTRod2+jKdURIlCNXVzErlIRdSXTBHrUrrlrghiI0WbhjTc4uEdZYlctEAkKvWONO2VTOOxxx4THymGp6tFbDi1R+LBc12+bIcARFTiPBC5aEl7Mo402EhElOjal3QuIio9cUvTOd5oiFREi3C4Sy4iKj0iTpOIYnikJ4P4dFi5dC8lRlfTgQR0HEucA4yuLyKK2DCHJc4D182YaoCtEJKOY9B0QloaXLfU1moSUWq80uvyUkSjMw8laNpLSQFf0nJNusiX01BA2sFKgV9LzQWIyCQiipBoqg0mQeQi2cBOSp7r1rKtB3sj3bbjU9OftNQCmgIWbRrSUBHFKHHxDG4aPMtPU56etKYExIROTl9qaNJHheHhazrUWyqijKeWiCwNyizSk8RovtEyh7OIqC9Nf8zdLCKqpcTEdRGFSjQEp70I25UaKqKkiaRig9HVtJdS+uQLrsuX7RAg3dZDU5EWEaWxRlJzQURorvHpiDiJiBKBatqYT5ZIKqKanjKUBGIj3UuJPdISgXNdUg3B0StCar7hkag0/ceBBJpqE1kOt/ZFRBEbSfcfYsN4ksrWAAZXIiZkS4hCtXQcpyH18LluxlML1AYlR8T5JKJZttxhk7TM4awaUoRAbLrktAsp3IAskYumSFSa1uS6NNUGk8DoSurARC7UgbWMJ1Go9EQtTds80iBykV63prQnjoFkniIkmmqDSWQ9/EVLah4NkQYsXFchRFTSqSclyw3gdBs8Xi1IJyzGJ0lEow7JHTt2uG9/+9tu3bp17pZbbgn+fQwc97Ao4BFKtg1wvZqabxBRSURGt3HaxnzuD//evffe6wYGBtzVV1/t7rvvvmA7lGQrSbNgXmVJ/2np5uQe4+xJTu3B0Ut6nib3iPtDRzprcu3ate6GG25wO3fuDLIXRVqbzDupY6/pWbjc4yzXlaQh/FvY2ocffthdd9117utf/7q79dZbA7vGODdqPKc3MgXHHyXd36MpnYvxkaQ1uR4i0VpdjQzcD3/4Q3fOOee4d77zne4zn/mMu+SSS9yHP/xht2jRokBQWcCNdGz2BtJFeLxpIDZaHvbLHMVhkUQuXFet5jf+HfbosTjPOOMMd9ppp7nzzz/ffelLX3Knnnpq8Nng4KC4VT9vEBvmsUTYEdEiNGxIYE1Ja2g4uEkR2e7du92ll17qFi5cGKzJr3zlK8Fa5ftPf/rTgaNUFMdIWtcHTfVtMqPSgIWsQi0R5d/50Y9+5D71qU+5BQsWBOO3evVqt3z58sDW9vf3uz179jRESBueKJcYJyBilRjoVsPf+N3vfldUc8HTxfhUW6gsvjvvvNN94QtfcLfffvsUoWRBXHnlle6iiy4S70fNG+qGktNtMGQISlEMTC1YMDhDODKSmijR9aGHHhp+Nxnmxfr16wMn6NFHH52yGHft2uXOPfdcd/3114vXRJ7w9zJOEsiISPcHtxoE9K677gq/S2bmzJnhu6lguFetWuWuuuqqKU1KRH0333yz++IXv+i2bt0aftpaWJfSeUVkJ1nHrYa/kQyA5AAJsl9EotXSudhW5sTnP//5wNZWXjv/PlkjHF4cy71l2owZM8aYNJdddpk766yzwo/rg5TKEUcckVp3oYsTwTnqqKNcR0dH+GnxYDAQe1KveKlpInH44YcH3s4b3vCG8JMJOGbuD//wDwMDnuT94Fn19fUFryxgBM4++2x34403Bu3st912215vRP7Lv/xLd8EFF6QuVqJQGjaOOeaYmk5EEUBItm/fHnigpFvTnLiTTjrJXXPNNVWbMu644w7X3d2dKsbcF9bWm9/85kzNHfydxx57bHDviXJJK+4NOIEXX3yx27BhQ/hJbTBOpHPnzZtX6GYx7g3RBmtL4ngSWX7wgx8Mv5uAefDVr341cIqSyheM39vf/vZAbLM2KF1++eXB+uTfYAzOPPPM8Cf1wRYtMh5pTTjYWtbnm970psAhLOraxCZia7dt2xaMZ1p6nv2hpNur2VrW98qVK4OgJSmrx1gQoWKXs4DwLlu2zN10003BXGi4iGJIk1JYDCjeA/+fDGgWw9IKokEg/YwHU8uj41pOOeWUIDKpbEbh38DDvfDCC0XpA+pweGRZ0jB5iChRFJOxVhTO2LH9g3EnfcL3RV2kEYwfjgrzMK3OxQKptiYYz/e9733unnvuCT9J5t3vfneQJsyyBajRIsr44ODhgdeCcgRzj60wXKOGcgvjyRxk7rFnstZ4siZZG52dneEnEwwPDwdRC45yGkRA5513XmBEs8z1PER0yZIliX8zc5y/MVq/Gmwt48dY8TcnObmkZHHwK8stBDrXXnttkPGLbHcSpITpYyD4k1Ipog29qwxYrfQXMKjUC6N0CTeMRVDkF38jL9KADG6teiepvxNOOKFqNyf/PfUUvkog7fbggw+G37UO0l+1jvJDiLhmsg5RhzeTtto9LNILotQmxreWIURMFi9eHH43GaJYaQMdPPTQQ6IGrTyJ6ru15i91UO5H/FjAavevaC8gG8DfjH2pxcknn1zTKSXykZ73HaW607JtecN4JZ3Ww9pENLk3kQ2rdv+K9IrsI38zDmetzluu7a1vfWvVva/YItabREABx4tM497QUBFl0I4++ujwuwkwVCxQPNui1PuywqDggdQaXDxcUj21yFJjwptiYbcaUu3VulMxxBgsoqRWi0O9ED3XMrzMVyLNWicVSdJNcYgaMBKthhRtNSePlC1jmub9FxkML+NWrTMeY0sjHzaoEgy3dCtXBFmfWtmZZsF1vu51rwu/m0x07Kj0NKOigf3DyY0cgUoomx1//PFVHWDmr3SfKSC60v22tWioiCKSv/u7vzvJMHETmLyRCGmGAWLxVC5Grru3tzcx/Zql25F/r5qxazY4DCeeeGL43TiMJ38bRkurwY3AcHI9lUL6+te/PkiV1YLrz7I/rZYxaDZvfOMbpxz/hsHlb+NeFL0xLA3mJM5APNomY0J3bVJNGkGqFaFXg3vW6gNV+P+ndBY/FANRwfFjHLUKaATOOeNZ+cQdMiof+chHau73zWo7mR+R01EvDV3ZDOKsWbOChgwmLIaGQUXts3h6RaYyFcgC7Onpcccdd1xVzwj4nMJ+rZ9Xwr9J01URoNU/WqhMOByFou2BrBeiEBw7DCgOA+PD4qTRIKnh7bDDDst0jBoRQxYjnReMHfVZrpX1ydqMHENp+qvIMJ7YGdYPxpTxJO3H+qwWhQK/Q+9AXIySYA2Qdar17zUL/m6cPbJfXCsv/iYyJD7ZWvpQomZFHAdqkThFtRwiRPbII4+s+fNKuGdz5swJv6uPhrvHTEaK5nT24YHjEWlN+dUiSgVyrewHZJGyuGrBBHjHO94hbvQh+tvbpqBGQR2NvVZcKxGb9JmqmqDEwALlniOg1LaTFiEG6/TTTxdFo3i5NEHUqi03E+YhaWrmYhSxSLe9aIFrYn1ie3BE2WZEJy3XXgucHMpQjGsaBAn8u1IjnSdEaXQb8/ezNrnuVtdqGw12FqeAa2XNsWsh6d5jh8m4VGsgq8Zb3vKWTE1F1Wj4TGCyMiE/8YlPBIbDh4ilGlwnAsp1pp1qw++Sx8eLYnEnwSL9+Mc/XohFCkzK97znPe69731vMJZR8d83uE46NInUkhyiCBY0zk6ScebfwWsmWsiS/s0TojQMEd56q+t6eYHTTqqTLlrWUxqs34997GOpJ/uwdiPRKgqMI6UkxjVLnV4TrCO28zBv01KvrMfZs2e797///am/i3NFx/TebuPKxVKTusLbZTNrq9MeeYDXx9YPItDXvOY14afJMMkRXU4pqpY6wgsmJcxhC0mbwlsBXuAf/MEfBHXCIqQlGw1ZE/YJ0nwijRiZ10Q5S5cuDca2EiJbTkchsk1zspoNqWr2x5HqTHICNMJ9x+FjfVZrcqxFNAdIkVaDMeREKrYbSZysZoHdeNvb3hbY2sr6oQ9Qevjc5z4XOArYWsl8ZQ1jqzgco1ovCgEK28fYdtaIcwoauk+0EkJxHiF2xRVXBCdIsE1EY7qBgcMLpQ7GhOU+0emYNVqMoji2R2zevDloraYmR6s6AkpkwwSox7DlsU80TvS3c8gAZ1CyP415o7G5CCPIeLIdC8eG/b1Rc1GWe889YY5zVu7f/u3fukceeSSYE1FfQGTE6xnPRu8TrYS/nUiUvcAbN24MOoi11kZxYmgmIdvDMX3RBvys9517wnrklBsOReE0JOrIRJ6k5Clt1JshavQ+0UoiW8t+9L/7u78LTkDTbGu579hEDjQhQ1DPGmI8sYuRraVsg20khUt3bxTgZf23mSO5HbZQCxqLMAp33313cEQafwQLtght/7XgxiJo3Gi80Llz5wZGDcMrqZ00m7xFNIKJyXzhoIH7778/2O7BeLJg+VlRYTwRSlI8OECMJwupCF3Q1chbROMgFpzuwkHrGF/6GIqeGsQRIkoh0qDRC4eFV7WsQBHIW0QjcGqZOzi7o6OjZVtb5LIaa5MMQmRryQpEJywVpQwSpyUiGoGRpZGBPwLjUGQRhUhE8YwYzHq8oWbRLBGNg/eLweWlQUQxuowlX4voCMVppohGUEuMxrPozYCsR5wixlPDc2ybJaIRrE3WJGPJHCp6b0okoji5RUqXV6NSRDG0Y6U/fOyaa64p2UBDK0899dTY4sWLUbGxkoiOPf744+FPDI1s27ZtrCT2wXiWRDT81NDKunXrgrEsiejYxo0bw08NjZSCzrF3vetdYyWxH1u9evVYMVpADcMwDEMhJqKGYRiGUScmooZhGIZRJyaihmEYhlEnJqKGYRiGUScmooZhGIZRJyaihmEYhlEn0317ioNhGIZhNIvpnKBhGIZhGEZ2pkufWmEYhmEYxmQsDDUMwzCMOjERNQzDMIw6MRE1DMMwjDoxETUMwzCMOjERNQzDMIw6MRE1DMMwjDoxETUMwzCMOjERNQzDMIw6MRE1DMMwjDoxETUMwzAMIfvuu2/4bhwTUcMwDMOoExNRwzAMw6gTE1HDMAzDqJNpM2bMGHvmmWfc0qVL3fz5893GjRvDHxmaeOGFF9zo6Kh79tlnHU/mmTdvnnvFK14R/tTQBs/5feCBB9xLL73k9t9/fzdnzpzwJ4ZGnn76abd79+7g/axZs9xBBx0UvDd0sWzZsuDrunXr3M6dO92qVavctCOOOGLsiSeeCAzuy172MrfffvsFv+QbXOOBBx4YCAxwAyJmz54dvtPN2NhY+K7kHU2bFr4bx7frffLJJ90BBxxQHk8ficazcix9gmv82c9+5l588cVgPH2mHcYT9uzZ40rBmdtnn33CT/zhueeeC74+//zzwTiee+65blppYCcsbxsRn8jtcAva7XqTsHuRDbtf2bD7NRnf74fVRA3DMAyjTkxEDcMwDKNOTEQNwzAMo05MRA3DMAyjTkxEDcMwDKNOTEQNwzAMo05MRDMy1DMtaNmev3Y0/MQwDMNoV0xEszDU4xYOhO/bgNG18wOHofzqGQp/YhhGPoy6tfNja6786nFtufpG17r58ftQQBtkIiokiEDbSEG53s6+4fC7kIGFJqSGkSsjbkfFsmtbENDOPjfpdpRsUNGygCaiqYx7huP62eW6uoIPPWfIbQ79he7BseCUkbHB7vEPBlY5y2QbRk6M7nLb+drV70ZYd+XXercg+IV2oWR3l48LaKUNGu5bU6io3ERUSFf/SGkgN7gl4fdeM7TZjWtotzs1WrkLTi19B8Nux0jwxjBSGHI9QRpuvjleQka3bBqPvObOdB3BJ+1KFJHHbdD6QjoUJqKpdLjerWNua28bTelqkzXykEvR+JzO4I1hJDLUszB0xgwpI1Eul9JJgeuAuVOOyOe4XWEzJ68iNnSaiBoCJlIrrnulayd/IurGjl5WEhbSZk14jWHU7Rr3VCeDoM5fW/ppGzGyY9zeDPe5vtg8Gu7rLJxTYSJqpEBNuNON9xh1u8H17VOZQUArhWBgoQlpOqU5s8oUNDtRCrPL9Y9MrgMiJmvadN5N7cvYbDVRQwsVAtpWzQ1Tm6sm1rCpaBKja5cHc6arvz+soxsyFrj1QRll60S2Z8EK1x82M27f1UaxaOeckisB1foytrsi3QoTUaMG7SygEBm0MddGwffeM7rWLR9XULehd2b4oSFiqCcsG1TfEzp3Znu3GhUVE1GjKkM97SygFYQbvoPULlsPTFVrMFE7717Z2+bdpXVQjrQG3KqogWZoTbgO26yhr2ORWxKEovF7Ee0amOuK5E+YiBpTKYnGRElrwC2MNda0fXPN8Ca3pa06PDIQGfzuQYve62KBWxHmboMGGtZbVJRvs4a+YFfEynGXovJedPWvKJZTP9amcOnRqx3Icr0j/V2Tfr/y1T0Y/qJS4teSicHu8L/rHlN+CzIhvV+D3RO/V/WlfeIIiV9zPVSuv67+kfAnOolfS2ZG+sdKbkWh78U0/qf0x7UdeDYR7XAL2u16k6j/XnB4AHsf6Z6MNX94jvR+VetmnkQpQh1rgxDV1tpkfL8fls41jGqkNHkYU1mwPtyKUH4NhjW+cMuG5XgNDzERNYxqlFvsJxobRteuKmRjg2EYrcPSuSXa4RZYimkC6b3gUXBTnmRTgnOU2+kYSJs72bD7NRnf74dFooZRg47erW4k2ukewsELbXWOsmEYiVgkWqIdboF5xxPYvciG3a9s2P2ajO/3wyLRVKLHOSW9rPnEMAyjHTERNaqQ7DgU8XFEhuEV5e7w2KutnuSytzaoec+yNRHNQPlpAlNe7XUsXnCCSLs9mskwmgJnVpeMf7UNt8N9rtMecB6QZoOa+SxbE1EjkSmOQ+zRTMttNRtGQ4megAOT1l607tyw62uzZ6JltkFNfpatiaiRjQXryx2rw31rrBZsVCc8tH9SGs6yFykMuTWhgiIck86miNadPQAhxQY1/1m2JqIZ4IHMk4xC+Gq3GmHHoiXhQQTFeq6fUQw4/m9a5/jTXCZh6chkRneVVhTEnqEZgy1XY1vt6ThQywa14lm2JqJGdjpmurnhW3/J2tiQ0sXdLo++iaXSJqXhRvpDozfs+pZbRFqVkR3jjkfXHNdOTz2ri2o2qEXPsjURzcCU3Hz4ss337Ufm5qqBhW0gpBOpNE51mpR17Oh1G6J0pEVTGQgbjSY5Zbalbiqte5atiaiRnXLaqT3I2thQ+fvlU48GVvmdyhzd4jaNh1JuyaKpZszSkSlE5zUP73AjwQdGTSptUAufZWsiamQnSju160HsGZurOnpXhvWZYbejLayjHdBfF+UU5cRDD0ofut6tFc6bMcUGDW0OawhkfIJoPdriMuz6Okvf55gFMhHNQK3GomZs6C0MdF0W9QnzTSRLc9XE01+63Bwrdhk1WeBWlJ2zTjfZ7je/67SwFMwGmYgaiUxxHKKuy6B438bhRkJzVeU9Kz8JpntlmzzI27q264WUdxRwTp5HneX9o6771LZyXiU2qJXPsjURTWWBWz9pcKq9traJcRyHphGrbWUjuGe+7+/rWOSWjBf13KYtVVQ0OMrOmmLSCAShWuqWpizsTbvvEy1RJBtkImpUIdlxsG7kEgnNVdW6uNvjnnW4ReMqOjUdWU7BDbiFduhCOgvWT5lD7eW47q0Niv77/AMcE1HDqId2b66qQc10ZPnwhS7Xv8GyGIY/mIgaRlasuSqRIB1ZPlwhRpCObK/Sh+E/JqKGkYI1V9VBR6/bWpGCszq64SMmooZRB9ZcZRiGc879P/5nXqDPBuEqAAAAAElFTkSuQmCC;" vertex="1" parent="1">
          <mxGeometry x="40" y="80" width="279.7" height="160" as="geometry" />
        </mxCell>
        <mxCell id="g6nxcl8gmdtNQCu66W4n-5" value="" style="shape=image;verticalLabelPosition=bottom;labelBackgroundColor=default;verticalAlign=top;aspect=fixed;imageAspect=0;image=data:image/jpeg,/9j/4AAQSkZJRgABAQEAZgBmAAD/4QAiRXhpZgAATU0AKgAAAAgAAQESAAMAAAABAAEAAAAAAAD/2wBDAAIBAQIBAQICAgICAgICAwUDAwMDAwYEBAMFBwYHBwcGBwcICQsJCAgKCAcHCg0KCgsMDAwMBwkODw0MDgsMDAz/2wBDAQICAgMDAwYDAwYMCAcIDAwMDAwMDAwMDAwMDAwMDAwMDAwMDAwMDAwMDAwMDAwMDAwMDAwMDAwMDAwMDAwMDAz/wAARCAC8AMcDASIAAhEBAxEB/8QAHwAAAQUBAQEBAQEAAAAAAAAAAAECAwQFBgcICQoL/8QAtRAAAgEDAwIEAwUFBAQAAAF9AQIDAAQRBRIhMUEGE1FhByJxFDKBkaEII0KxwRVS0fAkM2JyggkKFhcYGRolJicoKSo0NTY3ODk6Q0RFRkdISUpTVFVWV1hZWmNkZWZnaGlqc3R1dnd4eXqDhIWGh4iJipKTlJWWl5iZmqKjpKWmp6ipqrKztLW2t7i5usLDxMXGx8jJytLT1NXW19jZ2uHi4+Tl5ufo6erx8vP09fb3+Pn6/8QAHwEAAwEBAQEBAQEBAQAAAAAAAAECAwQFBgcICQoL/8QAtREAAgECBAQDBAcFBAQAAQJ3AAECAxEEBSExBhJBUQdhcRMiMoEIFEKRobHBCSMzUvAVYnLRChYkNOEl8RcYGRomJygpKjU2Nzg5OkNERUZHSElKU1RVVldYWVpjZGVmZ2hpanN0dXZ3eHl6goOEhYaHiImKkpOUlZaXmJmaoqOkpaanqKmqsrO0tba3uLm6wsPExcbHyMnK0tPU1dbX2Nna4uPk5ebn6Onq8vP09fb3+Pn6/9oADAMBAAIRAxEAPwD9/K87/al+Odx+zf8As3+MviFDoi68PB+jXOsy2BvPshnSCJpGXzNj7chcZ2n6Gu+a82pJuUbo+oDdPzxXiv8AwUV8Pap41/YZ+LWh6LpGp65rWv8AhTUdK06w0+IyzXlzNaypGgA4Xc7KNzEAZ5IoA9k0LVhrmiWd6qbFu4Ul27s7dwBxnvjNTzIS+7I+XBGV6ev5jisD4Y6g+o/D3Q5ltbqzDWsQaG6iMU0eFAIZT90hsjB+oz33p51SQJ3YZH5gf1FAHjf7NvwU8M+KP2ePAep6lpaXl/qPh3T7q4nkmlLyyPbRs7E7+pYk/jXbf8M7+C/+gFb/APf2T/4qqn7KP/Jrnw25Df8AFLaXyOh/0SKn/F39oLSfhN4l8N+HmtNS1zxX4wknTR9F02NXubpII/MuJmZ2WKGCJCN0srqu5441LSSxo4BY/wCGd/Bf/QCt/wDv7J/8VSf8M8eDM/8AIBt/+/sn/wAVXCfFz9sfU/g/4S8Wahd/Cnx9qV54Q0c67NY6e1lM2o2wL7hav54SWZNg3REq/wA6bQ+4Z0dJ/bG0Xx58DfC/xC8E6bqHjTQfFV5a2dsLKWK1nt2nultT5yXLRFHhmYJLEf3iMki7SyEEA6v/AIZ38F/9AK3/AO/sn/xVIv7PHgs/8wG3/wC/sn/xVeT+Bv8AgoWnjr4X+LvGFn8MvHtxo3gbXtU8O6tHZvp93fefpt1Ja3ckFulyXmjWSJtqqPOcFdsTFgte2/Cv4oaD8a/hvofi7wvqdrrPh3xHZRahp19bkmO6gkUMjjIBGQRwQCOhAIIoCSs7My/+Gd/Bf/QCt/8Av7J/8VR/wzv4L/6AVv8A9/ZP/iq7SigDi/8AhnfwX/0Arf8A7+yf/FUf8M7+C/8AoBW//f2T/wCKrtKKAOL/AOGd/Bf/AEArf/v7J/8AFUf8M7+C/wDoBW//AH9k/wDiq7SigDi/+Gd/Bf8A0Arf/v7J/wDFUf8ADO/gv/oBW/8A39k/+KrtKq6tey2FjNJDb/aZY0LLFvEfmt2UFuMk4AyQOeSKmWwHK/8ADO/gv/oBW/8A39k/+KoH7O/gs/8AMCt/+/sn/wAVXkvgP/gob/wsr4B6P430b4X+Or6+1/XbnQtP8Mx3el/2tdNbXslncXAzdi3EEUsbF3Mw2ptPLMFrX+Nn7c0PwA8TWn9vfD3x23gsXlpp+q+MbNLSbS9DuLp44okmi88Xjp5s0SNNDbyQpvJaQbJNldAO/n/Z48H/AMOjQqhUhgJpQTn0O/g+/pxUP7Kc01x+zB8OZbiea6uJvDGmySzSuXklc2kRZmJJJJOT+NdmuoeYrb42j2khjg4HJGegOOOuMHqMjmuI/ZMl8z9lz4ccMNvhjTV5HXFpF/n+WRg0AdP8QfFN54R8L3F5pujXfiDUhtS20+3kSJrh2ZVGXchUQbss5+6oJwThT88+Gv8Ago1eW+pX3hHxh4Afwv8AFS28SWHhe20GHWPt2m6pcXtpLeQTwX/kRk24tre5lkaSBJIxbuDEWaNX91+NfxAvPhh8N9S1rT/D+seKNQso99tpelwrJdXkhICqoYgAZIyc8DJr5N1z4fa38ZPGnw98cWvgbx3p+r/Df4gQ+M/EI1vTIrOTxAl3pV9pkq2saTSE/Y4LiArGSWMdsiDzZGZmGB9QfAn482nxrHiqz+y/2br/AIH1uTw9rth5xmFpdLDDcKUk2r5kUkFxDKj7QSsoDKrhkUrg/wBjn4Q6v4A8cfGTxrrdrcWM/wAVvGA1yzsZF2zW9nBp1np8BkXJ2ySrZmcocMgmCsFZSoKbA+e/GX/BAy18V+JtU1Nf2uv23NLXULyW8W0svifst7Quxby4gbZiqLnCjJwAOted/GL/AIIxaL8H9It7y+/ay/4KK+IL68yLfTtB+IMup6hdKo3O2yOzIWNBjc7sqBmjTdvljR/08uJd/wC7CqxbIYHnAx6d/wBPrXlX7TP7U3gz9lzw7Y33inxH4f0S7164aw0qTV7sQW0kqqXJkc/dRMFnKjOBgAnBqG9QPhz4F/8ABGzwv+0p8LdH8Z+FP21v28r7RdYWQJJN8S5Le4ieN3gmhkhltBJDLFNHJG8cg3I8TqdpBFdhL/wb4W4t3Vf2yf27PmU53fFQNnpgEfZcY4OR349K+qv2IoPAy/ALTR4A1q38UeH/ALVeXEusW64g1XUJ7uS6vbpVX5P3t1NNJ+7G1S21doUCvXpZcbgQoyAF5+8TniqA86/Yx0VfD37Inwvs1uLy8Fv4T0pPtF3IJLifFnEN0jgDcxxycD6V49+0r8OvEPw5/wCCivw1+NcOkan4i8Gw+EdS8Da4mnW7Xd34cNxeWl5DqC26qzyQs1t5MpiDOm6FipjWV4/bP2T23fsufDfHIHhfTB+VpFV34k/GbQfhjr+n2GqTXD6lrEMr2VjZ2M9/d3SRFBK6wwJJKY0MkQZ9oVTKgJ+YYAPkr40ax4l1T9oT4peIrOH4oah8KI/hjbiytBpurXFjNr8l1drL9nsRG0rkWhtgRHE0S5B+VwzVpfFP4A+Kvgl+0bofif4ZWE2qfCn4teLNM1LxvoTxSRt4b1NJ4rka5aRkDaLnyVgu4SAPMkjnG1xNv+iJ/wBqPwJ/ZGm6ha622qR6y119htNNs5769uzbSGG5KW0KNORFIDHIxXbG3DEcVLF+0z4Fn8KeKfES6yF0/wAFuU1+VtPuEuNIKQrNiaIx+amIZUk5XlHDDINDv0J5k1c+bP2JfjTN8D/gN8UpLzwb8R7vXLr4p+NNV0nQ4/C2ow3msQ3WtXlzatCZ4kjWOdHQrM7LCofdIyAPt9o/4Jqfs665+yl+xF4B8C+Jmtz4i0ezkl1KO3m86C1uLiaS5kt427xxNMYlIwCsYPevRrL4oaPf+CNF8SW9xNcaT4iFo1gUiKyXQu2jWFwrYYHDhiOoXJxxiuB0v9vf4Yz+GviVqVvqHiNrL4QySReKnbwrqkf9mPHCk7ou62HnFYZI5MQ7zsZSM0+boU7y95ntlFeaw/tY+DZtN8PT+Z4i+0eKbJ9S0/Tf+Ea1P+1mtUZFaaWw+z/aoEDSRqTNEmGkUdxUlh+1Z4G1XVvBNja65DdXHxG84eG2hgneHVDDHJLKFkEexdscTsQxBwOnTKA9GopscnmbvVTgg9u/9adQAUUUUAFUNc1JNHha5k85o442dkhiaaRgME7UQF3IGflQEnpir9ZviTVE0XTLq8kkmEdjCZ5EigeZmUZJwiKzscA4Cgn2NTLYD8vv2V9a8ffsX/BvRfjTpHhf4jeKfDupa9qOieMfh5c+ENSXXNJgm8QX0tvqejQG2SYAR3Qee3ZBFKmGDpIgEn078XP2yPAvxU17S/DGoeGfjVP4fhn07VrtF+Efixv7SmV47u0tjKNPCQhJUgkk8xgMqYnxulA7qz/4KHfCnWPgOvxPs9S8XXHhG81hNAtrm18Fa3LeXd59oe1WGOzWzN04Nwrx71iK7sLuycV6BqXx08M6P468L+GLq8mt9b8ZRyzaRazafcI135MbTSEkxhY3VBuZXwwIwQDVLYDroYReWLf6yNWAwOAUwPQcDnOQc+h44r89vD3/AARRsv2h/BfhnxtF+01+194BXxHoGl3R0Dwp8SpLPRtOP2GBSttDLFK0aHbu2byqliFCIFRf0Ohk3QlVX5UBXpjpkcfiDXDfsnu3/DLPw13KA3/CK6ZkA5/5dIvagD4r1L/g36s9MtGmk/bE/b0mjUEuE+KDStjGeES0LMfQAGvMfDn/AASy8E+LvhVoXi7Sv2x/+CgNxb+KtTn0TRbJfiQYb7VL6KW4jeBIpbVCDi1uHJcqqxwu7MqqTX6saxqkGlWElxdTR21vCpklkk4RUX5mJJ/2Qeewye1fBf7Nmk+DvHP7Cnwt8TSeN7HwvqHw38da5rejXqAahG9215q8T2ktsjBrpZ7O6mKwxMsp3JIh/dgkA4v4Tf8ABFbQ/i9pV7daN+2d+3pHNpV5NpGq21x8TvJvNOu4iPMt5FNt8pUbGDDckkbxyRu8bq7FfWv7CPgDxN4a0v4g+MvGULafq/xU8WS+JItPeLy5dMtFs7WytYpUDMEleGzWZ0DN5bTmMlihZiq1A+dfEP7EP7fU3iHUW0n9tzwraaRcTytY29x8JtLka3iZiUh3febaMDcSScZx2rivi78D/wBtr9nzwLceJPGv/BQL4Y+E/DttIFl1HW/hlpFhb7m5G93KKDgE4OOBg5GTX6aXMkixSEbQpHBJbv8AT7v1/lXN/FTw7rPiLwpef8IrcaDpPi2GJjpGpaxpLapbafKy7Q7QJNDIVIyCFljyM8noc3uB8E+GP2Tf28fHXh3T9Z0f9vDwHq2l6vaR3VjdW3wp0y4tZ42KOskcinDAjGCS2cnGM8aZ/Yg/4KEudrftveEFR+GaP4Rab5gHsCf6jrX0v/wTquJE/ZC8J2d54XsfCN5osl/o11Y6cxaxkmtNQuLNry2ZwJGtrtoGuImYDdFKhPXn3Jlwd67mZRwA+AevUZx+NUB5n+wzpOp6D+xZ8JLPWtU/trWLXwbpEd7f+Qtv9smFlDvk8teE3HJ2jgZrzH9t34KW3xY+O/ge+8I/FKf4T/G3w5pd9c+HL9o4byx1fTmltze2V5ZyMPtFuzR27EoY5Yyquki4YH2H9k47v2X/AIdNtVd3hnTDgdf+PSLr15rZ+KmseFtF8PtL4wudBtNHYqjtq7xJbyEnITMpC5LKpx3wKTKifn3/AMEyvj74w8S/t5/ELWPjN4b0jwjqvjjSrbQ/Bmo6Zcmbw9rb6Vf38eqR6bMyIN1xdTG8EZ/eyo5bMohZh6Zqfxo8TeP7L9tjR9W1DQLrRPh3p8ukaRdW2nLbvc7/AA9Heu11OHImeKS5MOFVAqoAV3Zr6s8Y6h4Ts/BzHXrjQ4/DewQyNfND/ZwXd+7Q7h5YBxtH4Dk7TRp48F6l8OV+znwxN4PWFWAiNv8A2asIPmL9393tX7w/h5zz1q9mYxp3i0eZ/sx6jD4z+GfwctbO4ilsdD8FafrUjRuGUTXFnHDaFiPvho2u2IBGWVG4GK+QbL4keJvg/wDtFftEfEiOxtPHnwl8A/E577xx4VsiG1jTlj0DRZItZiPmYufsfksxspAM7fOi3TwRpX6MW8ei+GvC8DWv9k6bo7BNr23lxW22RgU24Gwqxk4zwd+epzXG6X4v+DZsNcuLDUfho1laxlNZkiurHyo0kfI+0MGwqlwMb+CSMVn9o2UrR5TwP4vv4d/bA+IHhH4h/Af476T4T+Jtj4XkvNJ1HdFqnh/xZo01xuNte2ZZRJGksalniMc8BmHzDfiuZ8J/HHUvjj8RP2MfEHiTRtH8IeJL/wAXeKU1Cys75Lm3nli0bV4nntJCA8ltcFfOjcgMY5EYls7j9XWV18KYfh3p88TeA4fCutXKpaurWg0+8uPnURoRmN5OHXaCTgMBnBrR1fUPA+r+KtEg1STwrda3dKx0Vbh7Z7qcRtuY24J3MIyM/IMjYT1GTRJ29rL5sbcqdrFfl6cHp9R0PuD9Kkqvp23ym2LhWbOQPvZAI56EYwARkYGO2BYoAKKKKACq18yxyRszKvPDM3A69vXBPTmnX14bSB2VNzKPlBYKrE9Bk9K4rWPjn8PtR0m9+1+MPBbWIkfTrlbnVLZojKUc+TIC2MlVkOw8lVJxgGplsB+cv7H37SU37I/wn8KfFD4iXWj618AbvWPEGjWmvW7GOT4b6lL4lv4GubtQ7LPa3LSxRm5TEtscgqYpJJF+sP2jfEem6p+3P+yvcWmoabdQ6pqHiKezkjuEZbqJtFkO6JudysCCNnB65ySa9eil+GM3w5n1hD4DPg2R/tMl6fsg0qVsiISF8+XkH93uPIPHfBzX8XfB6x0LQdS/tL4apYzSNFo919rslhuXjkbels4+VissjZVOQzngE80tgPUCzSpGyuGBfkr90YJyOD15x1IyOlfnX4U/ZG/bV8X+BvDOqfDr9rTw54J8E32g6ZLpGhXfwy07UpNNhNlD+7+0fKZBu3HcwB59MV+iVvMDJuj+6+SzFhjOQAD79RkZ+7XC/snbV/ZZ+GoA2geFdLA6c/6JF60AfFuo/sYf8FANMtHuLz9ubwTa2sILySS/CfTIlTHOSWyB05PGBnvgjk7D4Mftq6r8OYfFln/wUE+GNz4bmmNtb6tF8LdLkieYTGBkRuQz+bvjAwSSuAMlq/Tm7nSGFizOo29QOBnAySOnX+vavgDwfpD+J/8Agnx8KdH0vXLzwv461P4k6nD4P1q3UTW2naqmq6xOjXal8Pavax3Ubxhg0gmVEaOR0dRlRV2YPhb9kT9vD4jaWLzTv28vBlzpszPF9ssfhRpkm1kbBTG4HcGBUgtkEEH3K+ov2A9dvr/wf42i8TaJb6H8Q7Pxddw+MTa332rT9Q1EwW7rc2cjKjfZXtTbeXGyB4gpjkLyI7sVoYOTueA+Jrf/AIKeXPiPVBojfsT2+jtcubGO/fxHLPHCXIRZWRAHfZgkgAZ9a43xp8FP+CkXxL1LTbnxN4d/4J5+JLzw/O93pM2qaV4gvJNMmdSjyQM8f7uR0JQsMZBIr9Lns1wzO27lmGQBtyMcdP1rzf8AaA+IiaAmn6G1l4paHxBJKLy80rQb7UfsltGo3jdaxPtkkLIqZK8M7fwFTjLuanxl4eh/4KeNo1uul3P7A7afboILQWw8S/ZyiqMeVsXbtBGMYGNuBjqb9rY/8FSprgNcXH7CsaKyl3VPE24Jk7tuVPP1IHAr2z/gkFfabqH/AATj+E32G3kt7Ww0eKzjV7Se3GEdlXb56qzx85DYwSDjnivpyWBS2/au9QfmAwcYNV0A8x/YaOsf8MZfCn+3006PWh4R0oXi2EryWol+xxbvKZ8MUznG4A+1ec/tufCT4lap8YfBPxG+EN/4V1Txt4E02/tZfB/il5LfTfEFheSWxmMN3EryWV6htlWOYI6nzSrjacj1n9kxWT9ln4a7m3H/AIRbTOf+3SKr/wAQvgt4Z+Ifiaz1bVLErrVjaS2NlqdpczWWoW0UpV5Y4riB0mRX8tCyo4DbBkHFTIqJ8Ff8Euvjx4e/aM/br+JljdeC9c+HK/DnSYV8M+C9cggjXQrqbUtQPiC6txCWhmJ1BxC08blRGkHQyla73X/HcfxE0z9tzwnJ8N/C/hqDwlYyR6tqNjrD3zeJb6bw/HdR3clu1pD5Uq20lsjOZZCzQBQcKGP01e/ss/D2/wBO0OH/AIRvTbU+Gpbi60m8s5Htr7SZ5y5ne3uoysyvMxlaVg+6VnYvuyRRH+yj4Bg8H+J9Ej0HyoPGpD+IbqO+uI9R1thFHCWubxXE8reTFHHlpD8qBenFU21K5ny+6cr8CRH4o+D/AMEtDU77W18Mafrk5ULtbybSFIFxjIzJJ5obOQbYjnOR8et8W7f4OftD/tER+OfD6r8AfEXxTey8c+I7KZZjpksugaKkMWpx7A0elSB3E0yuyoSolWOEyvJ+hHw8+GHh74Q6FZ6fokQ0/TrK0tdMgEtxJcSJDEziCLzJGZ8KZjgMzff4AJyeV0v9jf4b6Lpnjq1t9G1EWPxHMz+J1k1rUZDqryokEkju05Ku0UaxlkwxjRVyFAFTbW5on7tjyX9qf4T/ABDtvjP4T+J3wNj8D+KtS8G+FptFu/AGuS/YrTWtJvJY5I/sF9GrrYzbrQqHaKSGRVjVigTNcPoPwe+E/wC2Z+yT4Yt/Bvw2tfCev6zq8Enl6hYRQ6n4Fm0bU/LumWdS3lNZywXEVusblDIwC/IZGX6F8B/sJfC74V+GNN0nwzol7oFnplommWBs9f1CGbT7MOGFrbzCfzY7clRiFHEeeQoOc5msf8E7Pg7reqf2l/wi2oRObeO1ENpr2p2Vu0Ue5UiNvHcJCVxI/wArJhjI5bJdiaJPeLM5iJ+YZPRs7h9f/rcd6mqGxtI7GARxKsca4ARRhUAAACjoAAAMDipqACiiigD5L/4K6+Jr3Tfh38I9Bnnks/Avjr4qaB4a8bTB/LjfSLh5SbeVzwsNxdR2lvJuOGjuHj58ziH/AILG/CrwvqH/AATV+MeqXGj6WmpeEPhz4mOjXCwp5lmZNHuY5IouM7GjZspwD5anHygj6d+IngPRfij4R1Lw74i0mx17QdXtXtr/AE29gWe2voXBDRujgqynuO2BXBeMP2SPAPjn4Zaj4J16w1LVPDOrQPbXlnqGt306SQsoRoAzzFlgYHa0SsEYcFWGMTJXAr/G17e2/Ys8UW1wba3WXwZeW6RtsVR/oEnADHbgKMdcbR94jmvlr/gnf8YdJ1y8+E3gf4veHbfwv4q0zwlpl78KoJpPP0fVbFNLiEl7YXDKrHU0jaRLiBgstvBKoiDQyyzS/Uut/sZ+A/FGkrpuoQeKNQs47d7RYbrxbq1wlvDIjRSrEXuT5ZKMyFgAxjZ0HysQM/xf+wR8KfiL8M/BHg7XvC8194c+Hd7b6j4ctZdZvwuiXUAZIJYGM29GhVisJVsxKcJsAGXrfQI+Z7KFIP3gOCA7EZDEAjjv37jAHQ9a/O7won/BRBvA3hlvhSf2PYfh7/YGlroieJZvEFzqogWxgXdO9vGke9iC+FB2hgNzYzX6HaPpsWl6XDawSS+XZosCF5GkkCoMDcz5LHHOTyevNcb+ydCIv2Wvhqq/d/4RbS8BiWx/okVMD4rvdK/4Kk6tayWt1/wwfcRToUeKSPxMySKcBgylTuUg8jpXmtl8L/25/hP8F5dJh03/AIJl6B8P7m8aSWzFjrNlotxOZcsrRhEi3GVSSQoYuoOeuP1T1mzt7+xkt72GC4tZkKSRyxho2HHXPH598V8uf8E6fhz4T8WfsIeHLXXtF0XUdH0vXfEF4ltfWsMlrEyazqKCXY4wCkZZcngDPXggA+d/hRP/AMFHLnwq8PgnUf8AgnzcaPbySKq6C+vtBHKXDuB5Y8oMckkHB5JxyKK+0/2J/AGnaH8Gv7f0/SbHQY/H2oz+KvsNraR28ccdzgWm5FUBZFsktY2xj5oycZJop3ZPKj5o8b/8FOP2tvD3jLW9N0/9gPxZrGm2N9Pa2WpR/EvTIkv4UmdI59hhygdFV9uTt34ycbjz83/BUf8AbAnkK/8ADvXxgVBKsknxM0sfLyBhxB1+pG3PU5BH6LLbbEbftZSSzDB5PGO56AY9/wBK8d/bD8I+MviT8E20nwRY6TrUt5cJHqVneeJLzQJNRsgrlo7e/s45JbeZpFh+dQCELneh6Jq+5R8b/DX/AIKB/tS/B3wbpfhnw7/wTp8WaToukQCGwsU+KOmyKkS5wNzwkrjr8xyxbqcc7zf8FVP2wm3D/h3j4wzsLAf8LP0sk9B/zwx39c8dK+qP2F/F2g+Lf2aPDcvh3SvFHh62sbi80290jxBq1xqupaPf213NbXlpPdTyytOYrpJ4xIJZEcIrRsykGvY7iFnO4SbSo4IUE+vftQB51+xfqN1qv7IHwsuL7TbjR72TwjpTT2U7o8lq5s4iyMyMykg8ZB7V4/8A8FC/AHxEvPiV4G8aeC/Bvh/4vaR4Rs76HXfh5qN6lrcanDcmArqFkZi1s95bm3KIlwiqy3MgEqMa9r/ZMTy/2Wfhqvy4HhbS8ADGP9Eiq947+ENj4u8ZWfiCO+1zS9e0+xksLe7sb6SNEhldWYNAd0EpLIvMsbMgyUKEklN2Gj4Q/wCCeXx08Cft1/tR/Ejwvp8GryeAfhbpFiuleCvFlhcRT6fqGoX2oTamb21uMqZLadBaRod6RLbgRPhia9C1PxF4Z8SeAv2wPBOjeCNR8Ox+CrGVdUR7uBtMe6k0NLi3ksIo2Pkxm2a2ZwqJ++Mh2sxd692i/Yg+H1lrematpdneaN4o0Vrp7fxBYXkkeqym8mNxci4lORdJJOTKY5w8YchwiuiOtm3/AGP/AAanhj4gW6Q6pbah8WHV/FOrm736hq7i1jsQWf5kjItYkhHlKiquSoDEmrctTPeNmYnwJuE8R/Bb4LeHxGskMnhax1u6jmJaQxQW1sUTg4yZ5YTkkj90w5zx8WaHc/D/AOH/AO07+0V4B8aeEdP8K/Cn4ofEc6Dr/jCCwgWyV5ND0TyNFuLlQHtFu3lkcXDjy1c+SjpcTJIv6LfDD4M6X8H/AA1ZafprXtwmm6Va6NBPey+ZJHaW28QxnIC/KHOW5ZsKW3ECuAj/AGFvAt/4U+LGialdeINc0n4zTyzeLLXULoSreyS2sVpJhPLAhJt4oUCIqj5VYAMd1Z/auaKT5bHlX7VXwG8RfA3xx4F8R/DP4T+D/iV8MvAmizaPe/C61EOn3GmxyToy6lpMEmLKS4VY5EMcyxll4jmUvIH80+K1t8LPGP7Pnwf+NXhDwb4j1zQPC3iaxkl8Wveta+K/h/Z22rIt7AILgeYYvOjktb2EMh8lpWYTMCD9WfDH9i/QPhFoem2Oi+JfHy3Wi6amiWeo3WvTX10LNXZ0gZp/MWbYxcq8yySRBiEZF2gX/Bn7Jfg/wLaCw0+XXP8AhHTdnUf7ButQe6spbtZ/Pa4KybpXkafMr7nIkkcs4ZiSSLutRHqumoyQNuZmy5bk7gM88H05zz69hgCxUduMBvm3fN1zn/P0FSVQBRRQTgUAVdQGWGVVo9hDKTwc4A9j34NfEf7EP7Lvw38XfET9qqwv/A/huSM/Fu6iSSLTktLq0VtC0c/uJ0CyRsHllZZI3BVpG2kEkj7cu5g0cv7xo2CcHco2dfm59MZ5BHHQ814v4c/Yc8M+HJPHEdnr3jyK1+JGrS674jgg1lrVdSupreK3kkWaJUmgzFbxJiCSPGwEYJJJcmXQ/Jr43fGPxRpPw1+GPxEZbTxH8QPh74R+LWk6N431PTUvNSuLXR9SsLTTdXlnkVvOmtoN84mYsrOkj5PmNu/QX9vn4caX+yp+wH4s+IHgOP8Asn4gfD/SrfVdL12NAdS1qa3aLEF1OPmuY7rHkyK5yVnONrbSPW9X/YN+Hmq+M/AerQafNo9p8N9FvfD2haPY+Xb6RZ6bdRxRXNqbUoY5IpI4IUIcNsES7AhJNa+k/sj+DdP0fQdJeLWNQ8M+FpbW80TQdQvmuNL0yS1KvbSbXy0nlSJHJGJmk8p442jVPLXaR0TRVTWSt2/E9N0a+uLnRreW6tzbzzRq0kZYNsZlyQCBg4zyRxkHFfnt4X/4KPftL/DTwT4b8P8Agf8AYj8X/EPwnpGg6Zbab4kHj/StNGsItlBumW3KyGNDJv2bnJaMI5CF9i/ocsHnQSYbDLJncQRvxk8jIPf1xwCBjiuN/ZQDN+y78N2ZyzN4X01ifc2sZ96APijU/wDgqN+19qdhJDL/AME8/G0cMgKSGP4q6XE2xgQcOsIZSM5BUg55yMVw/wAP/wBrD9o74U/CC68BaT/wTj8fW/hbURdCbT5vjHaX+4XJklmCyTB5Bvd5GI3AZY9yBX6i6rZi9sZIm87bINrGKRo5Ap67WQhgfcHNfCfw6+O/izwt+w58J/D+japqV14y+LPxD1Twda61dyfbrrSoBfavdzXK/aCQ8kNjYSiLzdyCQR5Vh8jAHP6X/wAFT/2urK1jUf8ABPPxfHbqoQKnxL0tdmFUAJH5H3evTIGB1zwV9ZfsgfETQfFmleLNB0vTfEmh6/4F1o6N4hsNfvHvr6K6NvDPHKblpJBcRzW80MqyK5B3sCFkWRFKCVdnzj4p/wCDiD4GeFdd1DSb7w18cItQ024mtLmNfh5qT+U8eQ3Kpg9M8HpzkVw3jz/g4E+B/ja/0J7HUv2kPCYtbtri5t9O+G8ky6qpjaPybgXFrMwj+YNiExvuUfN2r9I3g+zpvLMyx5Y4X5mwPbnd/McYrxv9r/8AaQvPgevgnw74ftZLrxZ8StcfR9OkNrJeQ6ZDFazXd1eyxR/vJEihgcLFH88kskMeUDtLGFHyj4N/4OEf2c/BGlNY2Phn43wQ/aJruVB8O78tPNNK000zDYCXkld5GIGNznpxjaH/AAch/AGeHcvh/wCOC7jsAb4dal97BI6RnrjFfWX7MnxC034nfC+21bSPGGp+OY/ts1nc6he2sdnc29zDK8VxbTWyRQG3eGSNkMUsYmjYbZBkc+iX1l55Zty8oUIZcqw68jIz06Z7mgDz79jHXrfxN+yJ8L761W8jt7nwnpbxrdWz20wBtIiN0bgMpx2IBryb/goF8YPFHwH+IvgXxJqGheOta+B9va38fjSTwYss2qaXc7rdrK7mht8XkllGou/M+yEsCys6ugOPZv2VW3/sw/Dlhxv8L6YcZ6f6JFT/AIh+Ade1Px3Y67oXiz+w3t7CSxmsLzT0vdNvAzq4lkQNHL5ibWCFZUXEjblfgBSGj5X/AGRf2if+G2PjZ4l8G+HvihqPi74a+A9HtNTfxFpd+sN/4qm1ee+uIIHubVY2hjs7aKCL90YpTLvViTG1dDe/H6wl8AftKeHfB/xE8dap4k+G9hNc+RqOi3drJ4Sm/s1JYrRLye3RbrftWdXaWaUi4OZGUIBt/Cf/AIJieH/2dviVdePvh3rFx4Z8d69JfT+JroWMMmmeKzdXk14Bd2a+XkW81xL5LRPFIqkqzuCc7Y/YdaDQfjo3/CXLJ4s+PgVdb1IaUfsdgV0uDSkEFssoYAW8CsBJMx8xnbO0hBctZXRlG/LbqdB8MfFmq+M/g78H7K4ub6bVNe0Sx1XUboSmOYpBbQzSs74zh7hoI2AGSsrYxjn5d+HHx0bWv2oPjb8D7v4ieLNF8ReJvGcukeFdQv8AWb1F0fT4dJ0m7mi064kYxzagJbq4mjg3O+wlpVeBPLb7C+CPwXm+E+gaLZ6nrK65eeH9BtPD8F0lkbSFYoM7pPLLuEaQCINhiD5SkYrxbXv+CZx8feA/jRovizxRpusf8La19PE9ldRaFNbXPhDVUtba0gu7N1uyVeBLWGSN0KOJAzFmU7Kz+0bK3KY37WfxI179kLxz4AuPENj8VvEfwE0zRLqHXdf0C6utS1bQdVEkckV9qggb7fLZiESDMG6NSX86NlMRSr8cP2ldUT9l/wCGuufDr4mSeNNJk8c+DrLUPGdsbac+IbTUfFGnWrW6PbxrDvktp5PMESAICqhBuwvs3wu+APxO8BeHLX+1vi/B4s1210yDRpLvUfDEa2t+sUjMtxPBHOjfaSHZGMUscbAjMZIBHAav/wAEk/hPf/AfSfBsGg6FazWPi+x8XX+sS6Jay3mpyw63Fq9xBK2xMRXDq8JUDasUm0KVUA1axJ9W2rK8ZZR8rHcuO4IBzUlQadapY2ccMa+XHEAiKOigDAA9B7Cp6ACgjIoqN5xHJtPtyeBzn/DtQB8v/wDBQi/1X4HeNvhd8Xl8ReJLPwP4V8QQaZ450q11ea1sZ9NvC1vBfSxocYtLyW3llIKhrcS+ZvWNVHI/toXGuXH7UvwbuNF8XeONL0PWvH1j4M1fT9P1ie0t9UifSdVvrgkRsGTBSzBePyyGikUkbQK+qPi18NND+Ofw18Q+DPEtn/aHh/xZplxpGpWcgBSeCeJ45Yz3GUf19MV4f4r/AGENY1HwL8D9H0n4iXCyfBfVIdeXU9c0X+1LvxHepaXFs8t2/nwsBKLqaRgmDv2ncAME8w8jy79rbx74o/Zr+PekeB7Lxl4n1TwT8WPBXiSaxs59UkOp+FdU0e0S9iube+XF2YZot6yLPLJh44wCBJIGofErxn4s/Z0/4JYeHPj/AOHvG/iS68WeFPBuk+M/EFprWqSarY+LrdbWKa9tZEnMghaWMysstn5RWVIjhog0Le2/ED9iG8+K3i3W/FGu+Lo77xpdeGb7wlpF1/ZSrpnhWyvdhvHtbTzvMFzcGOPfNJPJkQRgALuVqY/YJvPGvwF8F/C/xt42GseBfB8VhFPpWkaP/ZLeJ47NV8q2v5WmmLQNJHDJJHAIRIUCtmJniY8wPoXQNdh17Sre6hSZIbxVdRINrruXIyp5HH+PTmvgPwj/AMF2vg7+zP8AD7wp4F8T+GvjP/bnh3w9pltctZeAdQuLWQ/Y4WDRSbAJEIIww+U9QSME/oIlnG1rGu1RFFjYgwVAXoMcjjH51xP7JkJj/Zd+HLFtzSeGdNdj6k2kRJ/z175OTQB8b33/AAcdfAXWU8m30T472kjK375PhzqLPENpAZRsIJDFT8wK+oNeH/D7/gqT+y34A+AmgeBZH/ad1b/hDvEFx4n0HW7z4fMuqaReyzXMzSRNb2scJwLu4jIaI7o52V9wY1+uGq20l3YzRRzNbySRsqShQ3lMRgNtPDYznB44r5U+GXx0+JXi7/gn7F4it7bxf4z8dXmp6lprT+HoNHg1Szt49Xubb7VDHetDYu8FvGpVGBLsq/K+SKAPDvhP/wAF2/2cfhle67LZ6N8etT1TxJfHUdV1G4+HV+Z764WKOAbgkKKixwxRRqqooCoOrFiSvrz9iPxrY/Ff9n601bTviF4u+IizXtzDcah4r0e10rWbG5hfyZrK6tLa1s1hkhdHQo8Cv0JZxhmKrQDl7z/gsR+yvp+oXFpP+0J8H4bq0lMM0UniqzRonDbSrAuNrBgRg+leW/HD/gpD+yr8R/FXgnxRov7TXwTsPEXw81C41CzM/iezktbyC4t5LW4tJgJMhXWUOHTLLJBGcOu9H+vX+DnhUqS3h3QlXGGA0+HDDduwcqevf1rhfjZ8INYm03T4/h74Z+FtpqBuSbq58R6SZreGMKQoSOHazMzYGd649D0qQPBP2fP+Ck37IvwTtvE0i/tL/Be91Txdr934l1adPE1nbxvcXBUBI0MhAjjiSJAQdzFC5yztn0Jv+CzH7J8xVY/2jPgzI8hCKo8V2hZieOAHJNdJ+yXo/wDws34UNqXi7wr8P31D+1L60hm0XRhBZ3tvBdSwJcosrO22QRGQfMflZTk5zXp0vwc8KCKQDwz4eG4DI/s6LbxntigDnP2MPEWn+Lv2Qfhbqek31rqWm33hLS5ba6t3DxXEZtIsMpHBBrzr9s79s+H9l/41fDnQ/Emp2fgfwL40jvYbnxnf2xksrHUY3t/slhLOSIbT7Qsk7LLOdjGDyxhmyPTv2SLWOy/ZX+GscMccMK+FtMCRooVYx9ki4AHaqvx38IeJPGNw1hbaJ4J8WeEdS0uey1XQ/Echit7uR2XyyzfZ51Me3zFZGjYNuHTHKd+hUbdTyv4bftIeO/iv8e9d+FMd54fhvPAunwap4n8S2lj5tvMt9c3X9m21rbtKwSWSzgWeR5GkVDLEqrJuLLa1r9o3XNE+GPxljsPHnw18ReIvAem3GoaR9jKz3NqkVoXMOo2sdxgTiWKUZj8tNpQ7MhgfMf2O/wDgl74g/wCCf3xT1jxZ8N9X0Oe18cQSwa54Kv8AULiPSdNSO8mm04abdeTLLElpb3D2xjaIxyqEYLCEVB2Vr+xt40sfD/7T2qR/8Iivij48mJrHSl1CdNP0sQ6Jb6WqzXn2VmbeYTKdtsCA+35j81XK3N7uxnZ8uu56z4N+J2reNfg58MryG4jh1jxnZ6dfSvDGCqx/ZlubkhWztRgPLDHJVpk68A+CeBP2sfH/AI9+Knx1+GOk+KvDeofEbw/r7aP4LtW07aunWaafp1z/AGnqKCYtJbpPf+W5XYZdiJGNxYj3P9m34S+I/BfhDwXD4uj0O21Xwv4QtfDjQ6Tfy3VtDMFjW5eOSSGEuj/ZrXbmNCCsnHc/NPiP/gm54/8AG998bfFM0fg3wr8TNY8VyeMvhd4r0HxPc/2h4fvP7MsrBYLiR9OA+yTG0/fwMtxDIku1o2MaSVn1LVrHofx3/a8uv2YPjP8ADXwT8QvF2m+FNL8UaVNs8bahpBg0vUta8yNIdL3GQw2TOrSyBZZGMyx7UkVomJh+LP7UPjDwN8SPAnhPXvG2k/D241o2qS+JZvAd1qfhvxFfXFwyJYW179pWKylZFTYLiV9zXKopdl2nqPC3g/41/Ef4SyaP8XvBfwH8TLrGix2OtaBDrN1d6Lqc4kYT3Aa408nyJUKE28kThDj94+WJ5n4FfsUeIvBP7L1x8A9cg8NXHw1jtJLWzvYvEF1dajp9vPcSytYwQS248tLJWihtZTcN8qIWiAURmhH1lZOWg53cHGT3+nsOme+KmqO15jyfvE5ORg+2ffGKkoAa8yo2Dxxkkjgfj0r58+Ev7SGs/tQ+IviFqeh6lp/hHwP8PvEN94Wgu54FnutZu7DCX1yzOwjhtorgvBsALObeRjJGGUD6CkhEjbu6jA5OPy7184fCP9l7xh+yb4/+Ii+BZND8TeCviD4hvPGH9lavqVxplxoGoXp33wjliguBPDPODKqbIzE0knL7hSewHHJ+1b4q8RfFP4U6DZ/Eb4d3un+LrvxDaazd+GRDeWyfYEM1s8UhmcQNJEY2ljkZyjMVBIy9cNp/7dnxW8YeEvAN1Y3fh7TE1j42y/DCbWIdEkbT/FmkiO4ddWso5JsxFmgaNWDyxlkdgXXbV/4f/wDBObxp8Prv4RaPqWj/AAs8YeE/C+s+MNd8UwalqM8QI168u51t7e1NlLHcJAtyIy8zRbwmcICRUfiD9iX44eHLH4aeDdBk+H3ijwD8HfiDp/inwvqOu+KtRg1uTRbe2uYl0y5RdPuVkmt/tAjjuPPYzRxJvRHDMyuB0vwX+OPxu+J37C998UtP1Twr4k8Z6fca55fh640n7HpusR2GoXlslqkiyl4JZo7VP3zmREdmYoFJA6nwn+2zdfGPxn+zLrnhGSy/4QH456ReajJbXdkxv7cLphvYsS7wFKlQjLsPIJ3HgVz3wE/Zo+PHw1/Yqu/hP5nw18M65qr64sniWw1u81caMuoX91crNBayWNuJ5Y0uSoDyIgdASHUFTvS/sbax8LPiJ+zTpvw503w2Phz8DbO5026XVNang1JbeTTTYxCGJbWRJXAw7b5YgTkd81S6Ck7RbPpzzREGjHO1RxkcDBH9O/rXyR8EP+Crn7NPwo+CHgnw34o+O/wn0HxBovh3TbW/0+98UWcc9pKtpFuR138MOhFfW0q+dCxUlQchhjBIGeM9evevLP2Zfhp4f8Rfs4/D++1DQtDvby68M6ZJLNNYRyO7G0iySWBJ/Empi9Wh9DzvU/8Agsz+yi1pI9v+0V8EZrhEby1l8W2iqW7ZIYkDOM4BwOe1eF/s5f8ABRj4I/s5fALQ/Bun/tXfs16jqmla7fajfXM+uxLDe2VzdXN00MZE48uZXnVQ5MikRklPm2r913vwh8N29uzWvhbwy1wo/dq2nxKCenJ2+hNeRfsveNdB+L/7MVp468S+DvCmm3U17qFrJa2ljHKhNtf3FmiqWAy8gjAA4+aQDmqA4f4Wf8FP/wBkP4ZprDWf7RHwbuL7xLqsur372/iWzAuLiRVUlYlkYqBHEg7nA3MSWJJXoH7Gup6F+058Ef8AhJta+H3hDRbx9b1fTn0+GzhuI4ks9RubJDv27WYrbA7gO/AxiigD0a+/aW+H+l6pNZXXjjwbaXdvI0M0E2t2ySwOv3kdS/ysPQ1y/wAUf2mPCbfC/W7fwr8Q/AsniOazlttNkk8QWirHcMpWJmw/RWIP0FeP6p/wQI/Y71fUZLy8+Avgqe4mle4llcXBaV2JYlj5vPJJOe9eX/Hz/gkH+xb8E9U8C6Sv7O/w3uNX+IWuf8I/pK6ld3On2ZuDaXF2FmnAkMbNHayrGoQs8hRRjJKgH1x8Ovjb8Kfhv4C0Pw/pvxC8Etp2h2MGnWqt4gtpCIoUWJctv7BeT361ty/tR/DVU5+IXgbDEKMa7bHJ5/2/T86+OvgB/wAEYv2Nfjl8P11mT9mvwVpM0Wo3+jTxLNPcQPLY3s1o8kModRLC7wF1kKqWV0DKrblHeD/g3+/Y5t5A0fwB8CqFIbHl3HOM/wDTX/8AV70AfQ37JMvn/srfDRvl+bwrpZ4YMCPskWMEcH8K4n9pb9riP4N/tC/Df4dtf+H/AA1N8RIL6e11vX1ZrF5bVoANPhRZIw95OJyyK8qDbBIVEjDZXTfsQeD9N8Afsa/CnRtHtY7HTNO8I6VBbQJnbEi2cQCjPPA45rL/AGsvhdH8a9Pfwr4q+Gej/FT4aatp0g1TSrqa2a4S7WRfIaKG5CRMMF2MvnpJC8URjBLMRMho5fwx+1H4w+JXxdvvhbY6H4e0vxx4Z0/+0/FV41zNfadolvPdXMWnRxhRC9xcXUNs05jZ4RDGcl3JXd0HjP4weOvhj8JPifrmseH/AAvcX3gewuL/AEi5gvpktdft4rQSh5IyjSWr+aksflK0wxGriQl9qfOP7Cn7B3xK/wCCf/xR8ReK7XUr74g+F/iBGLW98N6lrf2nWfC9rY3d0dJFveXBVLtY7KaO3ljnkQxsilJXAIbe8HfsX654Ci/a28XWPgPSNP1L46CGPw/pOnPaQ6rHGNFgsniupFZII2e8E0xCTyKVk3Eli2dHbm90hOXLrufSXhv4s6j4o+Fnw+1SGK1t9Y8axWE/kBWaCFZYFubg4OGwsSShSedzLnrivE/BP7YPxK8V+IfjN4ds7fwVfeKvBPiSTwr4V0+LT7uH+27oWNhe/arr9+5t7VftoSR1DbAm/lpI4X9Q/Zq8B69oXgXwL/wkum/2TdeEPB1pov2d545dt5iNbrlGKEA20Ko2/JDPwM8/KurfsN+PtW+Kfxz+KPh/w7q3gX4wf8JXJ4g+H2t215p11/blj/ZWnWz6PqcP2hVktZ57R2khkZdilJIpElGRMbX1K0se9ePP2ttW+G37Q3w5+D/iTXvAeieMfHWiXWrwanfQzR6ZrN3BNBG2m2EDz73n2zCTJnDKgQrDJubyrEf7YOua38S9H+HDaf4X8P8AjyOyivvEcl7qkk2maCbiSdLK3tyyRPqN3L5DOIB5JEY8x2TdCkuL4s8GeIP2wvg+2g/Hb9nXStV8O6lp0I1Pw+2tWOqSWmpKX8x7NmZEaNQ/yXBeCZWjOEbKtXiPwj/4Jm/EX4dfsw/Gf4W65cP49X44abJBYeINT1Jby58GP9na0tLe5ndknuo7KGO2kjuY8zSTCT5YsLIRX5tdgex+h+nM62373y/OUgSbD8u7Azgc4B6gHnBFWFbdWZ4T0yXQ/DtrYzXT3ktjFHA08jbpJSqLlnPdicnJwTn8a0o6GAks3lfw/KMZPpn/ADz6V4d8Pv2i9c/aa8b+MoPAK6Hp/hjwFrr+HLnW9TimvG1fUbbi+t7eCOSERxwO3kmcyPumjnTygIw7+23Me6Vf9YN6lC6nlPf0/Svlv4C/s/8Aiz9kLxf8VNBj8Mp8Qvhv8QvFd94w05LW6tk1LTJ9RkaW9sp4blooZbcTb5YpElL4laNogI1mlGBo+JPj78WNP+Kfww8LXGl+CfDuoePJNctrxZbW51cWIsA8iSxSia3EqXEQhO11jMZJBZ+K8ztf+ClHjvxXonhv+x9G8I2F/dfGa4+Deq3Eyz39lPcRRzSf2nZyB4S8QEXlvAygrL5sfmHydz8T8Df+Cbmu/BxPg/4f1j4a6DfeHdD8SeM9e8Qtos1pFa2cWtXV0bKFSzRSs9vDLErmOMBBEmxm25rc8Q/s0/GTwj4d+Dvw7t/BC+LfDfwP+Juna5pPiKx1KytZNV8O29pdRxiaCaWMi/i+0JC5UlJzF5wMZkMSZu60kI9E+FP7WPxi8b/shXXxZsfDvgvxPNYXWrCbwlp8dxp15fQ6ffXNtIbe8aWVDcPFas0cTxIjSMiNLGCZBe+I/wC2x4yT4S+Efi/4F8PeG/FHwh8QHRLnbNqM0Ov6jYalJboLq1jEZiEkTXUf7iRi0uxhujJUNzP7PXgL40/Dv9hi4+Gmk+AYdD8b6jc60YdV1vU7KTRtMTUNTurhLh1t5Zpp2hhuQ3keUqyvE0ZkQHfVzwT8LvGP7Nng7wP8KfDPwd1jxl4B+FOk6dpeh6lL4i0y2i1i5tYAou7mJ5vMXy5EUgLExLneACiBdOw3qrM+vRIJINqrt3HaBtIwT+H5+leOfs5/HrwT4M/Z4+H+m6x4x8KaVqFr4Y0tZba81aC3mjzZxEZR2DDIIPIr2RId4WTJ+XB5bcGGB07dQOcevrmviP4Tf8ESv2VPjh8I/CHi/wAWfBLwdrniTxFoGnXuo386TCS6ma0iy5CyBRnHYClbW4H1Bqv7Vnw2gs5NvjrwZeT7C0VtBr1n5twRjCJulVdxJAGWAyRyK+b/ANkS58Oab+zZ4Y8OeKPiRo/gXXPC+varqIjsPEejXUV59pu7q4jYlxMkiLFcAcbSsiv/AHFarGo/8G/v7HcFtI1t+z74Feby2CxlrhFc8df3hHHuK8b+GH/BJv8AZi+O37MVn428LfsifDW48Uaxf3un2+i3evT21jbta3VxamSe9WJ2jjYW24mO2kYF1Xaxy1MD6A/4J/eKPDv7NXwJvdC8W/FTwvqmqXPiPW9Y2za5pbLDDeatd3MLL9mjiXMkcySMpHys5AwBiivKv2W/+CMH7JPx6+DGl+Jta/ZX8H+D9YmlurS90qW4lu4obi3uZbaV4Z1ZPPt3eJnhlKIXheNykZYopQB+gJuG+YYUMPfOMkgHHHp0FeD/ALb/AMF1+P3hPw34U1rwyPGnw51LVHTxho42tcT2QtrhoGj3FXAW8W1cmN1kGwYbZ5kcnzz48/4N99C8ZeLtY11/2qf20tKk1S+n1A22n/EpY7Wz8yUyGOFDasVRc4UZJGB1rz34nf8ABCrwT8OLnR7G5/aq/bo1DWfEE0lvpOk2fxPga6u3ijM0mwNaqAEiQszMwQHaudzorAH3D+xD4A8U/C74D2eg+JtS1DVE0jULy00S51Qq+pHRluJBp6XUg/1sy2whQucO20FyzFmPsMj5k2/L8wPfnsDx+NfmH8J/+CFfgn42eDF13QP2uv25JbVrifT7uI/E6OKa0u7e4eC5t5U+xnZJDNE6MuTgocEjBPTTf8G4/h/ymUfta/twt8p4f4nxsueOuLMcccj+VAH21+ye+79l34cDn5fC+mA5Hf7JFVX4n/tAWXg74yeHPANlYTax4u8TabeaxbWXnpbxCytHhjnlZ3OCQ91AoVQzEuCQqgurf2LtCj8M/shfC2whuNQvIbXwlpUSTX1wbi5kC2cIBkkP3mOMk4GSegrzn9vf4D+Bf2jL3QdG8b+G/HUU2jwzan4f8beEYLz+1/Ct8SsR+zT2atcQyOjZI2tC6oyyA/IGCo26nQaP+2Fp/jfxTB4S0vw7r03jR7O4v77RLlYrSTRbOG8ms/tF1KXZESaa2lEAUsZgpZQY1eRNTWf2lpvCvgT4ga3q3gnxVZyfDtHnurdRBJ/akCwC5+0WkjSASR7Cy/MI3V0kUpwCfkP9gbwf8cP2aP2nPH3jb4v22vePPD/xWsLay0vxLbeH5Y9Z05dKubq3shqVhaq0kZu7OSKcukKqkgYSJCzEDsH0Xxk/hL9sTX7q1+KWoeFNVsXs/AGmalDqt7cTwvoMQuFttPkDXA3ak1xgNGWwSEUR+XVWSdkZvmUfM+rNK+L8OufDzwr4ks9PuJJPFS2T2lpNL5csaXSrMwJwVJii3uwHaJuRXlul/t1Jq1p8VpD4H1Zbz4V64nh9bKLUIGu/E2otbQ3aW9igYb2kjuIwgkKBnYjgAkan7KiXXiz4b/C1rjS9X0u38L+C7HdFq2jT6dcpfSwiE4iuI1kSSGOCdGUqDtu/z+QY/DXxH8MfHL4+fHD4c6f8QJPEngvxnd6paeENd8L6pDo3xB0WTRdIhnjsg1qZEvzNZSJb3Vsr4ZSkkUsLNiUk3qaK3Lrufa3/AA0tMvjnRfBbeF9Ti8datocviW80Y6jbZ0mySWOEtJMrbWcvNsULuTdE2WVQrtxfxJ/bh8TeD/BV54os/gD8SNa0HTdNa81CY3uj2c1vIocva+TPdq8ki7Qo8rerPIFUk5x538U4Ph3/AMFFvCfhvxT4i8C/H74da5odgmo+G/E1t4T1TRfFvhG+kJjubKMrbtICCsW9HWa0mHXzAgx13wQ0D4l/EH4I/CHwv8U/tWseIm1qXVNd1VtMWy+02Om3Uk2nzzwqNkF1cuunySxYA3faAAAgFOPwkn1JpUjz6dGZIZLaTHzRPtzGfT5SV/IkVZVdtMt3LbwTkq2OevQH+tSUgIp2Mbbl+ZiMKpbAfqcD3ry60/aOt/G3xI8ReHPCOh3XiX/hD7oafr18txFBY2d00aSG0RyS0twiOjOiqFQMAzBiqn0+4DGbA/iTIwcHI7Z98/pXx9+yf4W1n9j/AF34y+BvGmg+JJtH8VePNb8Y+Htf0LSry/XU7HVpmupIZDZJLPb3FvK7xZfbujWBo2yGRBgehT/th3E3jPwHoNj4B8RrqPj+fVrW2j1K5gszps2mM4uYp13SFVcRZjaPejhgdyKVY8ref8FPdBv9L8OLpfgvXr6/1b4iv8L9S0ueW2im0LW1RpQs5DvG1uY1EomiZ8oUIU7jt+fPhV4N+IkvjT4A2fjNvjdZ69e+IvHd0+uNpV/rE2g6fdTXUOji4uTBPbWqm0FoBFKV+YAyBW3A52qafrHwz8MfBf4d6r8M/Hy+L/h18bLDXPGOuaJ4M1rV9P8AFXm2l8ZPEK3sMUwL3HnRPOryM1vI7xliiIzZy1+IGrM+ovCn/BQz+2f2Z7r4wX3w38WWfg/TpNRXUmt5LbUNR06Cxu5rW6uWt4WJkhVrd3IhMkvlKD5e/CnrPG/7adl4Pv8AwleWnhHxZ4i+H/im60nT08Z6QbaXSbeTU3iism2GUXMkLvc24M8MTxp5uWYBH2/Pv7IHxV17wB/wThvNA0n4c/EbVPHmo3Pib+yNBv8AwlqWjR3Ut1q+oy2nnS3NvFDbROk0DvK7ABCT8zFQ9rw5+yhdeCP2Z/gz8K/C+tfESP4ofs9/8I9p9tq1vZanY6DePElul47GeNbG+tWs3uY8je6DciusyADTSwH3J5vlWyn+Fh1Z88npzznJ9+9cT+ye5P7Lnw3yrL/xS+mYDcHH2SLGR2PqOx9etdosCzQoy7kEe1lHoAPXucYGckduRnP5y+Ef+CEnh74/+A/DPjQ/tIfteeDX8SaDpt4+jeG/iS1vpNgxs4QUt4preV448jITeVTO1AqBUUA/RvV7tbWxlkaOWYRIZSkS75HC87VHUk9BXzF+yNomofDb9i3TfCvjL4c+KrtNR17XLPUtKawguGjtLi/vblJZo/Nw8EkLoPk3tukUFMZI8Luf+Ddfw/pFu9x/w1h+3ROsSl3RPihGWcAE4GLMHnjgGvJdA/4JKfD3xN8CtN8eaL+05/wUJ1i21i9uLDS9MsfHscup3stvPLEyKn2QIoDQSHfI6IMKC2doIB+hX7C3wIuP2YfgnP4RDXsWg2ut6hP4d025uftMmg6VLOz2lgsmWLLDGQqruYRptjDER0V8N/s2/wDBGL4f/tSfDVfFfhf9rn9vNYY7q50e8ttS+IJ0/UdIvLWdobm0nhksleOaOVCrZGGADKWVgxKAP1KkvBHu3Dbt7nofx/p1rw/9rfwno9vrvgfxxceKb7w/4o8CzXk+l21vZf2l/bkdxbGK4sjYria6DDYyiFlkWSOMlthdH+YfiR+xR+3Fo2o61rK/t/aP4c8PQyzXNut58H9Df7BbAlgjSMcsEXgs2SQMnvXH2X7O/wC2Zqvwy0nxjb/8FIvCd94b1yK3m07UYfg9oMkN75pXyRCUJEu/epTaG3ZBGM5pbuyGfZ37B3wr8SfCn4Talc+NlgtPF3jfxLq3iu909TGTpYvrtporRjETHJLFAYUkeJmjMqOVZh859wlmAfb3YccH6elfm34Y/Yt/bs8aaJZXulf8FENF1TT7sb4bmL4MaG8chHIAPOSCOhIIHPateP8A4J+/8FAN22b/AIKBaeq4OWT4K6ET044JA4I/HNU9NCUfaf7Jz7/2Wvhqw+6fC2llT6j7JFVz4k/GLw78OvEem6Tql5dNq2t2809lp9jbXF5eTxQFBLMsNurSeUjTRK742gyxgnLAHn/2G9L1LRv2MfhPa6xqY1jU4PB+kpc3ot0txdSCyhDP5aAKmSCdqjAzivL/ANuv4K6X8V/jN4H1DQPihqnwd+M3hbTb+58L67GIp9P1G0kMIu7G9tJj5d3bFkt3dAY5UIR4pUIfMsuO56f/AMNY+BZtN0m5t9VutSm1uW8WwsbHTLi51K4+yTtb3JNokZmRYpU8t3ZAqthSVZlBtwftPeDX8IeKNaOoahb2fgUsNdWfS72O600LCk5Mtu8Yn2+S8cm4pgowIyM18N/8E1fjz4yf9t74h+Ivjhoug+Gbnx1pNt4f8GeIdIlc+GNeGk6hqEV+ljLJxEbm4lN6sEjGR0ldlLrFI9ejal8avEXjbwz+2rZ6prmk3XhLwLpk+m+H9QW2giW4SXw/HdyPNcBisrwzXDwZIBCqgfL7ib+0ZylaNz68sfino934L0PxHa3U1zo/iBbN9OZEbzLtbtkETBHw+AJFYggELk44xXn8X7dXw1uPDnxF1o6l4gTT/hLJLbeKpZvCmqRnT5UiinaNQ9uDOfJljfECvlZFPGKyv2X9Ti8cfC34OR6bcfaNP0XwRp2tSPG4ZWluLRbe1J2thl8v7YzAEcqh9K+ObX4oa58L/wBoz9oL4o6M2j/EX4Y/D/4ly6h408Kadcwf2nbQpoGiMmt2ziQCaSyEcoFrLgOPNeNhPBGDK3Lt7vMfesP7Svg+WLQniPiJ73xJZHUbLTX8M6pFqy2yMivLNZG3FxbKC6gCaOP5nI6k1VX9rz4fxaet8uu3R0+O0ivrm9TTbt7XT7eSQhJLqXyttvny3Y+cV2gOzYXBr57+Meo+Cf21PE/hH4mfA/49ab4F+I1j4aa70HXbWS31DRfEWjyTGR7S+s5m2TQpNECwTZc2zPw0Zzn5/PxG8WfF7wr4z+Kl9oGj+CPEHh/RLe28d/Ds3TyaF8bLO3lufLn0sNiZVl2SpaSLg3bSCC4R41Q0Q3sRLSNz9XLZ98e7btJ6g9j+FSVX01WW1Xcuxm+Yr/cz2/z+lWKbHHYiuW2fM24Rrycf57Vw3iH4+eF9B8TXWhS3F/fazZwLNe2Wj6bd6o9krqWUzfZ4nEW9RuQSbSw5A5rt7oYcMxZQqn5h/B15/wA+lfG37AXiF/hN40/aA8FePL7/AIRv4gXfxN1vxJBd38qRtrmkXsm7Tby2eT5Jo4rURWxQD9y1vtYDKlk9hnsTftx/Dw694TsYdS169vvG0d8dEFl4Z1K7iujZFlu0ZordxE0TqVeOQq4YYAODWdrH/BRb4QaX4a8M6pJ4i1Sa18X+I28I2Udp4b1W6u01iMtu0+e3itmmtbhdjborhI2XBPHf5I+Gfx08cfGLx3+zvq2oeKPBejeNNW8VfEG10s6ho4+xz29sbq1tZ0t4riB5jPHFHO0vnfOZXKHaVJ5fT/FXg7wX4Z+Deh6vrQ0j4tTftGWmpfE7R9U1GD7Rb69PYXvmvGm2NGsHQQG2dY1D2/kH75ap+KOoPc+2/C3/AAUa+E/iL4Vx+N/7a13TfBclzcWr6/q/hPVdJ0y1eK4NvL9omubeNLdVnRoy8zIAw6kAtXpPxV+OHhL4K6Lo954p1y10uz8Ra3YeHdPkk3s15f3k621tCgQZ3vKy/N0UKzkqqMw+NP2T/jr8P9D/AOCPWtT65eab4k03VrjxjpzaPaBNUvfELz6zqapYwWyZe4lmMmxYQMkuBnGSeI8ZfD34m/BL9gf9nXRPH3hvUNS8XeDfFfwy0QXSara3Ue6HWtI85VZpdxllkV42fldkcLdQzHSmrrX+tAP0ys5DLF/q2Vc4+YBSBjg4H8jgj0rh/wBk2bf+y38N+DlfC+mA4Bx/x6RdMgV2lvbsbeHC+T90lSxYr6gkHk89SSM881+d/h79iz9s34heCfC+tfDf9taHwH4L1Dw/pkum+Hrz4UaLqkmkobKH919qcBpgDzuZQecY4yZYH6JavqkOkWU13dTW9ra2sTTTTXD+XHCi8szMeFAGSSemPrXxz+x3+094P+Af/BP7RNT1XWLNY5fEWtaXBFLIFka5l1m9kjSXhvLj8pxIzFSRG6sASyBvN7z9gn9vvS7aS4vv+Cg+jQ20Klnkf4MaFGqgc8tkYHHJyK5ez/Z6/bH1b4XzeOrX/gpR4Pm8I26TSHVj8JNANlmEskxMmQo2ukinH93ucmgD7c/Yq13wjq3wxv7jwlrX/CTLqGsXl/q2rR2slvFqGpTymedog4GY18xVUKWCIiISWVqK+QfB/wCwx+3T4s0Ox1Cy/wCChOj6jpmpW0d7bTWvwb0Ty7iGUb0lDRuhIcEMGDc5PWiq5Sbn6LarGx0a5VVVW2Ns3j5WPbjk/oT7V+e37MVleSfD/wD4J531ws7eG7fTbyLeQWthqTeHrhLOVgcsGaA3yo0hzmQqRucGj4k+BP8Agpl4z1LX7K11D9hubwxqUs0C2OoQa/cNLaOSqRzgw7HOwgMOQeeCODxmh/snf8FFPC3w1j8GaTpH/BOrSfB8LbotBs9E1uDS4eQcLbLbCIfMN2duc9x0qbWfMUfWn/BNq01C38L/ABYmlUroN98WPFE2h4LbXt/tzLPIoycK96Lx+wYlnGQ9fSD/AC7lG7cw4weT17nj9a/OTR/h3/wVF8O6dbWen6r+wjY2dnCIIILeHxFHHCqghAqrAAoQYUAcbVAOTkm3D4a/4KohsXHiT9h/ySy+YyJ4iDKgPzbf3OMkevtR1uB9rfsn5/4Zc+G/3j/xS+mYLEZP+iReldF47k0ew0i4utek0yHTEQefLqBjW3jAORuZxtwT698YFcN+wm2tt+xd8KP+Ek/sr+3V8I6UL46Y7vZmX7HDu8ov82zPTcAa8c/aM8SSan/wVi+CvhPxY0i+AbrwfrWraFbSp/oOq+JYJ7basuRteWCxNxJEp5G+VgCRkAHter/Hr4Yt4Fk1TUvGfgVfDoEcct3Pqln/AGezZ2qC7MydVIxnIx7AixbfGX4c3vg3UryPxV4NuPDOknbf3MWqWhs9PGQw81lfZGAxXGSD8wyM818Xf8FOfiWU1v8AaP8ABK+AfCq6ovwPPiCfxNFqc51HU7QXNzBBazW/2UjbDKkrh/ObZ5pIUksK1vGOm3vxO/av+Mmu+MLe08E+JPA/wgv9At9Ds5mvF8YaXeJHcjVzdFIjNBbzxTWqQmINDI1wxIEsYYirsD6o0D9qX4L2zfZ9K+InwvhGxZGittfsF+U5KPhZPunJwcc7s12mmeHNBu7Waa00/S1j1GNnkkt4I3Nyj/NkkDJzlWAOenTgZ+C/+CP9pH/wtrTY2t7dPM/Zm+FiMgTCMCms8Duy5LA+gAz154X4V6JdeNf2tPG3wR8L3FvY/Ae9+KepTWts0PmaNcS2miWlxf6IiRmPdaHVpZJZLdHCyNBcxvkF1aea0rFOOh+kvgqHwn8QfDclxov/AAjuqaO9yyiWwEE9vJJGxDfMmUyGLjg5XJzhs43bvwpZX8kMk0ETTW4IikCAGLpgr2BXAwe2OK82/Yx+NGqfGr4WapJrWi2Oh6v4V8R6p4Wu4rBmNjdPY3TwC4twwDLHKqq/ltlo2ZkLNs3H1uq8yXruNij8oN0+Y54GKdRRQBXuf3k+3cqlQCuG+bnIPH0HHuPauR+J/ivwb4djhh8Xap4Z0/8AtFikMeqzQRfaSN2BGs33yM5wB7gckHrNQKoSeFkZPvdNqgjJz2xn8MmvkL/gm74hn8deK/2k9W8QIlx8T7L4p6vol+l2THLZaZbsi6PbKSC6Wj2Xk3CgbkZrqZgCzOomWwbnu/jj4xfC7w54l02PxF4p+H1jq1wqz2P9palZxXJjjkba8YkYOQr+YAy8K2fejxj8V/hZpK6Lq2t+JPAVmviLYum3d9fWkf8AaaqDgQOzZkA/2eME9q+KvhR8XtY+Ivi74B+IPCvw38L6FLbeLPiRYW+hWviOZbUyWs11BdSLcG0VozNdwzuEMQRQ6/MCozy3gjwhZWHwj+AutQ6jHey+Pf2mR4o1Pw/DZeRB4Hv5YNQ+0aOItxEb200T+cxI8y4M8ioPMCge1iep97eB/jb8JfE+v2//AAj3i74eanq1yr/Z/wCztVs3mmzgNsCtuOflBAyPXOBW98S/jP4K+Fk2n2vizxX4X8O3WrTiPSoda1CG1e/mQptWFZmBkbcyYCZPIxzzXyH+zp4O8C+Kf+CMXinT/iRb2Nj4LtZPF99qU90jQrpqw65qcyXSPjcksTIsqSLh42RGXDBTVP4Z6X8cNO/Za+DPxu1zULXxR4m/4Q7w7beNPBHiDQ4Xe7B2m4ms7pUFxBflpml2yNLE7xRx7Ig3mLWy/rsUfe1uVtvMwp+aRSWwoLbsDJAA6dORngVw/wCyeit+y78N2Vtyt4X0sggkA/6HEP6V3ET7QcyGTyyQSwXIOM54HXv24Ir85/DGi/8ABRS+8EeGX+E+sfsgad8PRoGmLo0HiBtcm1NYhYwZM7QweXvLbjhcgZHJoA/Rq7YRRH5pPmBXuV54yTzjHrx3r5J/ZV8pv+CVXiCSbzMCz8YB5MclP7R1Qgkj88A9x615DfeB/wDgqdq1nNb3mufsJ3lvcIYpIprfxC6SI33lIMGCD0IPFcb4f/Y9/wCCh3hX4ZXngvT9D/4Jy2Pg/UnklvNCt/D+sxaZdNIcvvtltRE248nK5JJJPNAH31+xR+8/Y4+EfmfMx8G6Oo8xeSfsMJPP+ehor4m8D/BX/gpt8N/D9nonh+8/YL8O6Fpsfk2Wn6Tp2u21rYx9liiW3CIB0wAOKKAP0u2D+6Pyo2j0H5UtFACbB6D8qimVY238jA7Dr19OamqjfalJbTXiqFxDaiZcjqfn6+3AoA4z9k3d/wAMt/DfczOf+EX0w5Oef9Ei9efzrb+J/wAIvDnxl0W303xPoml65ZWt3Ff28d7bLKbS5iJMVxCx+aGdCcpKhDoeVIPNfmN8Ev8Agr78SvCXwb8I6XbaH4Ga30/QtPgjaSyut7AWkPLEXABP4Cuo/wCHzvxR/wCgD4C/8Arv/wCSaAPtnxN+w18NfGvh3WdL1rw7/bEPiGxj0zU572/uprzUbOMuY7Oa5aXz5LVDI7LAzmNWd2C7mYnQ+If7H3w9+K9roC+IvD66vdeF7W4sdLvp7uf7daW9wix3EQuRIJikqqqyKXxIFUMDgY+Fv+HzvxR/6APgL/wCu/8A5Jo/4fO/FH/oA+Av/AK7/wDkmgL2Ps3wT/wT9+F/w2mjk8P6LqmismmWeiZsdf1C23WForpa2ZEc6g28KyOI4ceWgdgqgHA7D/hmrwLB8PdJ8J2fhnS9J8O+H2Emk2elxnT10aQBlEto0BRraQLJKu+Iq+JHGQGbPwF/w+d+KP8A0AfAX/gFd/8AyTR/w+d+KP8A0AfAX/gFd/8AyTQB+kfg/wAHaX4A8PwaTo1jbabptruMVvbxiONCxLMcD+JmLMxPLMzEkkk1qZr8yP8Ah878Uf8AoA+Av/AK7/8Akmj/AIfO/FH/AKAPgL/wCu//AJJoA/TfNGa/Mj/h878Uf+gD4C/8Arv/AOSaP+HzvxR/6APgL/wCu/8A5JoA/TOeHzgOWXawYEdeDn9en0JrifE/7OPg/wAW+MJvElxo0dn4ourSOwuNa0uaXTNRubeMsUgkuLd0lkiRmcrG7sql2wBuOfgL/h878Uf+gD4C/wDAK7/+SaP+HzvxR/6APgL/AMArv/5JoA+4dP8A2K/htout+GdQ03wzb6PceD2lk0aPTJ5rG2055naS4eOCJ1iV52djM2zdNuO8tmqPiz9gr4V+OPH914o1Hwpb/wBuX2qxa9cXVpd3Vk8mpQxeRBffuZVH2mOD92Jcb9oABAAFfFn/AA+d+KP/AEAfAX/gFd//ACTR/wAPnfij/wBAHwF/4BXf/wAk0bgfa3hr9g34V+FdCtdHt/CcM+gWV3/aMGjXt3cX2lw3f2n7X9pW0mkeATfaf33mbN/mYfO7JPXWXwE8L2XjzUPEy6bu1nVZIJ7uVppGjnlhREilMTMYzIiooEhUuAFAYBVA/Pv/AIfO/FH/AKAPgL/wCu//AJJo/wCHzvxR/wCgD4C/8Arv/wCSaAP0rVWgdY1kkaVVBchR8/BH0HIzgVxP7Jse39lv4bhvmYeF9MBJOf8Al0i9z/Ovgp/+CzXxQaSzQ6D4Bxc3IhbNjd8Ajt/pPWvt39gnxDN4t/Yg+EGqXCxpcah4M0ieRY87FZrOInAJJA/GgD1nYPQflRsHoPypaKAGvEHxwu3OSCM5op1FAH//2Q==;" vertex="1" parent="1">
          <mxGeometry x="360" y="360" width="199" height="188" as="geometry" />
        </mxCell>
        <mxCell id="g6nxcl8gmdtNQCu66W4n-6" value="&amp;nbsp; &amp;nbsp; led1" style="verticalLabelPosition=middle;shadow=0;dashed=0;align=center;html=1;verticalAlign=middle;shape=mxgraph.electrical.opto_electronics.led_2;pointerEvents=1;direction=north;labelPosition=center;fontSize=5;" vertex="1" parent="1">
          <mxGeometry x="400" y="131.43" width="40" height="57.14" as="geometry" />
        </mxCell>
        <mxCell id="g6nxcl8gmdtNQCu66W4n-107" style="edgeStyle=orthogonalEdgeStyle;rounded=0;orthogonalLoop=1;jettySize=auto;html=1;exitX=0;exitY=0.84;exitDx=0;exitDy=0;exitPerimeter=0;labelBackgroundColor=none;fontSize=5;startArrow=none;startFill=0;endArrow=oval;endFill=1;strokeWidth=1;" edge="1" parent="1" source="g6nxcl8gmdtNQCu66W4n-18">
          <mxGeometry relative="1" as="geometry">
            <mxPoint x="150" y="376.0055865921788" as="targetPoint" />
          </mxGeometry>
        </mxCell>
        <mxCell id="g6nxcl8gmdtNQCu66W4n-18" value="&lt;br&gt;bt1" style="pointerEvents=1;verticalLabelPosition=middle;shadow=0;dashed=0;align=center;html=1;verticalAlign=middle;shape=mxgraph.electrical.electro-mechanical.push_switch_no;labelPosition=center;fontSize=5;" vertex="1" parent="1">
          <mxGeometry x="160" y="360" width="75" height="19" as="geometry" />
        </mxCell>
        <mxCell id="g6nxcl8gmdtNQCu66W4n-63" style="edgeStyle=orthogonalEdgeStyle;rounded=0;orthogonalLoop=1;jettySize=auto;html=1;exitX=0;exitY=0.84;exitDx=0;exitDy=0;exitPerimeter=0;fontSize=5;endArrow=oval;endFill=1;" edge="1" parent="1" source="g6nxcl8gmdtNQCu66W4n-26">
          <mxGeometry relative="1" as="geometry">
            <mxPoint x="30" y="375.94610778443115" as="targetPoint" />
          </mxGeometry>
        </mxCell>
        <mxCell id="g6nxcl8gmdtNQCu66W4n-26" value="&lt;br&gt;sw1" style="pointerEvents=1;verticalLabelPosition=middle;shadow=0;dashed=0;align=center;html=1;verticalAlign=middle;shape=mxgraph.electrical.electro-mechanical.simple_switch;labelPosition=center;fontSize=5;" vertex="1" parent="1">
          <mxGeometry x="40" y="360" width="75" height="19" as="geometry" />
        </mxCell>
        <mxCell id="g6nxcl8gmdtNQCu66W4n-35" value="&amp;nbsp; &amp;nbsp; led2" style="verticalLabelPosition=middle;shadow=0;dashed=0;align=center;html=1;verticalAlign=middle;shape=mxgraph.electrical.opto_electronics.led_2;pointerEvents=1;direction=north;labelPosition=center;fontSize=5;" vertex="1" parent="1">
          <mxGeometry x="440" y="131.43" width="40" height="57.14" as="geometry" />
        </mxCell>
        <mxCell id="g6nxcl8gmdtNQCu66W4n-36" value="&amp;nbsp; &amp;nbsp; led3" style="verticalLabelPosition=middle;shadow=0;dashed=0;align=center;html=1;verticalAlign=middle;shape=mxgraph.electrical.opto_electronics.led_2;pointerEvents=1;direction=north;labelPosition=center;fontSize=5;" vertex="1" parent="1">
          <mxGeometry x="480" y="131.43" width="40" height="57.14" as="geometry" />
        </mxCell>
        <mxCell id="g6nxcl8gmdtNQCu66W4n-37" value="&amp;nbsp; &amp;nbsp; led4" style="verticalLabelPosition=middle;shadow=0;dashed=0;align=center;html=1;verticalAlign=middle;shape=mxgraph.electrical.opto_electronics.led_2;pointerEvents=1;direction=north;labelPosition=center;fontSize=5;" vertex="1" parent="1">
          <mxGeometry x="520" y="131.43" width="40" height="57.14" as="geometry" />
        </mxCell>
        <mxCell id="g6nxcl8gmdtNQCu66W4n-38" value="&amp;nbsp; &amp;nbsp; led5" style="verticalLabelPosition=middle;shadow=0;dashed=0;align=center;html=1;verticalAlign=middle;shape=mxgraph.electrical.opto_electronics.led_2;pointerEvents=1;direction=north;labelPosition=center;fontSize=5;" vertex="1" parent="1">
          <mxGeometry x="560" y="131.43" width="40" height="57.14" as="geometry" />
        </mxCell>
        <mxCell id="g6nxcl8gmdtNQCu66W4n-39" value="&amp;nbsp; &amp;nbsp; led6" style="verticalLabelPosition=middle;shadow=0;dashed=0;align=center;html=1;verticalAlign=middle;shape=mxgraph.electrical.opto_electronics.led_2;pointerEvents=1;direction=north;labelPosition=center;fontSize=5;" vertex="1" parent="1">
          <mxGeometry x="600" y="131.43" width="40" height="57.14" as="geometry" />
        </mxCell>
        <mxCell id="g6nxcl8gmdtNQCu66W4n-40" value="&amp;nbsp; &amp;nbsp; led7" style="verticalLabelPosition=middle;shadow=0;dashed=0;align=center;html=1;verticalAlign=middle;shape=mxgraph.electrical.opto_electronics.led_2;pointerEvents=1;direction=north;labelPosition=center;fontSize=5;" vertex="1" parent="1">
          <mxGeometry x="640" y="131.43" width="40" height="57.14" as="geometry" />
        </mxCell>
        <mxCell id="g6nxcl8gmdtNQCu66W4n-41" value="&amp;nbsp; &amp;nbsp; led8" style="verticalLabelPosition=middle;shadow=0;dashed=0;align=center;html=1;verticalAlign=middle;shape=mxgraph.electrical.opto_electronics.led_2;pointerEvents=1;direction=north;labelPosition=center;fontSize=5;" vertex="1" parent="1">
          <mxGeometry x="680" y="131.43" width="40" height="57.14" as="geometry" />
        </mxCell>
        <mxCell id="g6nxcl8gmdtNQCu66W4n-64" style="edgeStyle=orthogonalEdgeStyle;rounded=0;orthogonalLoop=1;jettySize=auto;html=1;exitX=0;exitY=0.84;exitDx=0;exitDy=0;exitPerimeter=0;fontSize=5;endArrow=oval;endFill=1;" edge="1" parent="1" source="g6nxcl8gmdtNQCu66W4n-46">
          <mxGeometry relative="1" as="geometry">
            <mxPoint x="30" y="396.90419161676647" as="targetPoint" />
          </mxGeometry>
        </mxCell>
        <mxCell id="g6nxcl8gmdtNQCu66W4n-46" value="&lt;br&gt;sw2" style="pointerEvents=1;verticalLabelPosition=middle;shadow=0;dashed=0;align=center;html=1;verticalAlign=middle;shape=mxgraph.electrical.electro-mechanical.simple_switch;labelPosition=center;fontSize=5;" vertex="1" parent="1">
          <mxGeometry x="40" y="381" width="75" height="19" as="geometry" />
        </mxCell>
        <mxCell id="g6nxcl8gmdtNQCu66W4n-65" style="edgeStyle=orthogonalEdgeStyle;rounded=0;orthogonalLoop=1;jettySize=auto;html=1;exitX=0;exitY=0.84;exitDx=0;exitDy=0;exitPerimeter=0;fontSize=5;endArrow=oval;endFill=1;" edge="1" parent="1" source="g6nxcl8gmdtNQCu66W4n-47">
          <mxGeometry relative="1" as="geometry">
            <mxPoint x="30" y="415.94610778443115" as="targetPoint" />
          </mxGeometry>
        </mxCell>
        <mxCell id="g6nxcl8gmdtNQCu66W4n-47" value="&lt;br&gt;sw3" style="pointerEvents=1;verticalLabelPosition=middle;shadow=0;dashed=0;align=center;html=1;verticalAlign=middle;shape=mxgraph.electrical.electro-mechanical.simple_switch;labelPosition=center;fontSize=5;" vertex="1" parent="1">
          <mxGeometry x="40" y="400" width="75" height="19" as="geometry" />
        </mxCell>
        <mxCell id="g6nxcl8gmdtNQCu66W4n-66" style="edgeStyle=orthogonalEdgeStyle;rounded=0;orthogonalLoop=1;jettySize=auto;html=1;exitX=0;exitY=0.84;exitDx=0;exitDy=0;exitPerimeter=0;fontSize=5;endArrow=oval;endFill=1;" edge="1" parent="1" source="g6nxcl8gmdtNQCu66W4n-48">
          <mxGeometry relative="1" as="geometry">
            <mxPoint x="30" y="436.9041916167665" as="targetPoint" />
          </mxGeometry>
        </mxCell>
        <mxCell id="g6nxcl8gmdtNQCu66W4n-48" value="&lt;br&gt;sw4" style="pointerEvents=1;verticalLabelPosition=middle;shadow=0;dashed=0;align=center;html=1;verticalAlign=middle;shape=mxgraph.electrical.electro-mechanical.simple_switch;labelPosition=center;fontSize=5;" vertex="1" parent="1">
          <mxGeometry x="40" y="421" width="75" height="19" as="geometry" />
        </mxCell>
        <mxCell id="g6nxcl8gmdtNQCu66W4n-67" style="edgeStyle=orthogonalEdgeStyle;rounded=0;orthogonalLoop=1;jettySize=auto;html=1;exitX=0;exitY=0.84;exitDx=0;exitDy=0;exitPerimeter=0;fontSize=5;endArrow=oval;endFill=1;" edge="1" parent="1" source="g6nxcl8gmdtNQCu66W4n-49">
          <mxGeometry relative="1" as="geometry">
            <mxPoint x="30" y="455.9461077844312" as="targetPoint" />
          </mxGeometry>
        </mxCell>
        <mxCell id="g6nxcl8gmdtNQCu66W4n-49" value="&lt;br&gt;sw5" style="pointerEvents=1;verticalLabelPosition=middle;shadow=0;dashed=0;align=center;html=1;verticalAlign=middle;shape=mxgraph.electrical.electro-mechanical.simple_switch;labelPosition=center;fontSize=5;" vertex="1" parent="1">
          <mxGeometry x="40" y="440" width="75" height="19" as="geometry" />
        </mxCell>
        <mxCell id="g6nxcl8gmdtNQCu66W4n-68" style="edgeStyle=orthogonalEdgeStyle;rounded=0;orthogonalLoop=1;jettySize=auto;html=1;exitX=0;exitY=0.84;exitDx=0;exitDy=0;exitPerimeter=0;fontSize=5;endArrow=oval;endFill=1;" edge="1" parent="1" source="g6nxcl8gmdtNQCu66W4n-50">
          <mxGeometry relative="1" as="geometry">
            <mxPoint x="30" y="476.9041916167665" as="targetPoint" />
          </mxGeometry>
        </mxCell>
        <mxCell id="g6nxcl8gmdtNQCu66W4n-50" value="&lt;br&gt;sw6" style="pointerEvents=1;verticalLabelPosition=middle;shadow=0;dashed=0;align=center;html=1;verticalAlign=middle;shape=mxgraph.electrical.electro-mechanical.simple_switch;labelPosition=center;fontSize=5;" vertex="1" parent="1">
          <mxGeometry x="40" y="461" width="75" height="19" as="geometry" />
        </mxCell>
        <mxCell id="g6nxcl8gmdtNQCu66W4n-69" style="edgeStyle=orthogonalEdgeStyle;rounded=0;orthogonalLoop=1;jettySize=auto;html=1;exitX=0;exitY=0.84;exitDx=0;exitDy=0;exitPerimeter=0;fontSize=5;endArrow=oval;endFill=1;" edge="1" parent="1" source="g6nxcl8gmdtNQCu66W4n-51">
          <mxGeometry relative="1" as="geometry">
            <mxPoint x="30" y="495.9461077844312" as="targetPoint" />
          </mxGeometry>
        </mxCell>
        <mxCell id="g6nxcl8gmdtNQCu66W4n-51" value="&lt;br&gt;sw7" style="pointerEvents=1;verticalLabelPosition=middle;shadow=0;dashed=0;align=center;html=1;verticalAlign=middle;shape=mxgraph.electrical.electro-mechanical.simple_switch;labelPosition=center;fontSize=5;" vertex="1" parent="1">
          <mxGeometry x="40" y="480" width="75" height="19" as="geometry" />
        </mxCell>
        <mxCell id="g6nxcl8gmdtNQCu66W4n-70" style="edgeStyle=orthogonalEdgeStyle;rounded=0;orthogonalLoop=1;jettySize=auto;html=1;exitX=0;exitY=0.84;exitDx=0;exitDy=0;exitPerimeter=0;fontSize=5;endArrow=oval;endFill=1;" edge="1" parent="1" source="g6nxcl8gmdtNQCu66W4n-52">
          <mxGeometry relative="1" as="geometry">
            <mxPoint x="30" y="516.9041916167665" as="targetPoint" />
          </mxGeometry>
        </mxCell>
        <mxCell id="g6nxcl8gmdtNQCu66W4n-52" value="&lt;br&gt;sw8" style="pointerEvents=1;verticalLabelPosition=middle;shadow=0;dashed=0;align=center;html=1;verticalAlign=middle;shape=mxgraph.electrical.electro-mechanical.simple_switch;labelPosition=center;fontSize=5;" vertex="1" parent="1">
          <mxGeometry x="40" y="501" width="75" height="19" as="geometry" />
        </mxCell>
        <mxCell id="g6nxcl8gmdtNQCu66W4n-106" style="edgeStyle=orthogonalEdgeStyle;rounded=0;orthogonalLoop=1;jettySize=auto;html=1;exitX=0;exitY=0.84;exitDx=0;exitDy=0;exitPerimeter=0;labelBackgroundColor=none;fontSize=5;startArrow=none;startFill=0;endArrow=oval;endFill=1;strokeWidth=1;" edge="1" parent="1" source="g6nxcl8gmdtNQCu66W4n-53">
          <mxGeometry relative="1" as="geometry">
            <mxPoint x="150" y="416.0055865921788" as="targetPoint" />
          </mxGeometry>
        </mxCell>
        <mxCell id="g6nxcl8gmdtNQCu66W4n-53" value="&lt;br&gt;bt2" style="pointerEvents=1;verticalLabelPosition=middle;shadow=0;dashed=0;align=center;html=1;verticalAlign=middle;shape=mxgraph.electrical.electro-mechanical.push_switch_no;labelPosition=center;fontSize=5;" vertex="1" parent="1">
          <mxGeometry x="160" y="400" width="75" height="19" as="geometry" />
        </mxCell>
        <mxCell id="g6nxcl8gmdtNQCu66W4n-105" style="edgeStyle=orthogonalEdgeStyle;rounded=0;orthogonalLoop=1;jettySize=auto;html=1;exitX=0;exitY=0.84;exitDx=0;exitDy=0;exitPerimeter=0;labelBackgroundColor=none;fontSize=5;startArrow=none;startFill=0;endArrow=oval;endFill=1;strokeWidth=1;" edge="1" parent="1" source="g6nxcl8gmdtNQCu66W4n-54">
          <mxGeometry relative="1" as="geometry">
            <mxPoint x="150" y="453.9944134078213" as="targetPoint" />
          </mxGeometry>
        </mxCell>
        <mxCell id="g6nxcl8gmdtNQCu66W4n-54" value="&lt;br&gt;bt3" style="pointerEvents=1;verticalLabelPosition=middle;shadow=0;dashed=0;align=center;html=1;verticalAlign=middle;shape=mxgraph.electrical.electro-mechanical.push_switch_no;labelPosition=center;fontSize=5;" vertex="1" parent="1">
          <mxGeometry x="160" y="438" width="75" height="19" as="geometry" />
        </mxCell>
        <mxCell id="g6nxcl8gmdtNQCu66W4n-104" style="edgeStyle=orthogonalEdgeStyle;rounded=0;orthogonalLoop=1;jettySize=auto;html=1;exitX=0;exitY=0.84;exitDx=0;exitDy=0;exitPerimeter=0;labelBackgroundColor=none;fontSize=5;startArrow=none;startFill=0;endArrow=oval;endFill=1;strokeWidth=1;" edge="1" parent="1" source="g6nxcl8gmdtNQCu66W4n-55">
          <mxGeometry relative="1" as="geometry">
            <mxPoint x="150" y="493.9944134078213" as="targetPoint" />
          </mxGeometry>
        </mxCell>
        <mxCell id="g6nxcl8gmdtNQCu66W4n-55" value="&lt;br&gt;bt4" style="pointerEvents=1;verticalLabelPosition=middle;shadow=0;dashed=0;align=center;html=1;verticalAlign=middle;shape=mxgraph.electrical.electro-mechanical.push_switch_no;labelPosition=center;fontSize=5;" vertex="1" parent="1">
          <mxGeometry x="160" y="478" width="75" height="19" as="geometry" />
        </mxCell>
        <mxCell id="g6nxcl8gmdtNQCu66W4n-103" style="edgeStyle=orthogonalEdgeStyle;rounded=0;orthogonalLoop=1;jettySize=auto;html=1;exitX=0;exitY=0.84;exitDx=0;exitDy=0;exitPerimeter=0;labelBackgroundColor=none;fontSize=5;startArrow=none;startFill=0;endArrow=oval;endFill=1;strokeWidth=1;" edge="1" parent="1" source="g6nxcl8gmdtNQCu66W4n-58">
          <mxGeometry relative="1" as="geometry">
            <mxPoint x="150" y="531.9832402234638" as="targetPoint" />
          </mxGeometry>
        </mxCell>
        <mxCell id="g6nxcl8gmdtNQCu66W4n-58" value="&lt;br&gt;bt5" style="pointerEvents=1;verticalLabelPosition=middle;shadow=0;dashed=0;align=center;html=1;verticalAlign=middle;shape=mxgraph.electrical.electro-mechanical.push_switch_no;labelPosition=center;fontSize=5;" vertex="1" parent="1">
          <mxGeometry x="160" y="516" width="75" height="19" as="geometry" />
        </mxCell>
        <mxCell id="g6nxcl8gmdtNQCu66W4n-102" style="edgeStyle=orthogonalEdgeStyle;rounded=0;orthogonalLoop=1;jettySize=auto;html=1;exitX=0;exitY=0.84;exitDx=0;exitDy=0;exitPerimeter=0;labelBackgroundColor=none;fontSize=5;startArrow=none;startFill=0;endArrow=oval;endFill=1;strokeWidth=1;" edge="1" parent="1" source="g6nxcl8gmdtNQCu66W4n-59">
          <mxGeometry relative="1" as="geometry">
            <mxPoint x="150" y="571.9832402234638" as="targetPoint" />
          </mxGeometry>
        </mxCell>
        <mxCell id="g6nxcl8gmdtNQCu66W4n-59" value="&lt;br&gt;bt6" style="pointerEvents=1;verticalLabelPosition=middle;shadow=0;dashed=0;align=center;html=1;verticalAlign=middle;shape=mxgraph.electrical.electro-mechanical.push_switch_no;labelPosition=center;fontSize=5;" vertex="1" parent="1">
          <mxGeometry x="160" y="556" width="75" height="19" as="geometry" />
        </mxCell>
        <mxCell id="g6nxcl8gmdtNQCu66W4n-101" style="edgeStyle=orthogonalEdgeStyle;rounded=0;orthogonalLoop=1;jettySize=auto;html=1;exitX=0;exitY=0.84;exitDx=0;exitDy=0;exitPerimeter=0;labelBackgroundColor=none;fontSize=5;startArrow=none;startFill=0;endArrow=oval;endFill=1;strokeWidth=1;" edge="1" parent="1" source="g6nxcl8gmdtNQCu66W4n-60">
          <mxGeometry relative="1" as="geometry">
            <mxPoint x="150" y="609.9720670391062" as="targetPoint" />
          </mxGeometry>
        </mxCell>
        <mxCell id="g6nxcl8gmdtNQCu66W4n-60" value="&lt;br&gt;bt7" style="pointerEvents=1;verticalLabelPosition=middle;shadow=0;dashed=0;align=center;html=1;verticalAlign=middle;shape=mxgraph.electrical.electro-mechanical.push_switch_no;labelPosition=center;fontSize=5;" vertex="1" parent="1">
          <mxGeometry x="160" y="594" width="75" height="19" as="geometry" />
        </mxCell>
        <mxCell id="g6nxcl8gmdtNQCu66W4n-100" style="edgeStyle=orthogonalEdgeStyle;rounded=0;orthogonalLoop=1;jettySize=auto;html=1;exitX=0;exitY=0.84;exitDx=0;exitDy=0;exitPerimeter=0;labelBackgroundColor=none;fontSize=5;startArrow=none;startFill=0;endArrow=oval;endFill=1;strokeWidth=1;" edge="1" parent="1" source="g6nxcl8gmdtNQCu66W4n-61">
          <mxGeometry relative="1" as="geometry">
            <mxPoint x="150" y="649.9720670391062" as="targetPoint" />
          </mxGeometry>
        </mxCell>
        <mxCell id="g6nxcl8gmdtNQCu66W4n-61" value="&lt;br&gt;bt8" style="pointerEvents=1;verticalLabelPosition=middle;shadow=0;dashed=0;align=center;html=1;verticalAlign=middle;shape=mxgraph.electrical.electro-mechanical.push_switch_no;labelPosition=center;fontSize=5;" vertex="1" parent="1">
          <mxGeometry x="160" y="634" width="75" height="19" as="geometry" />
        </mxCell>
        <mxCell id="g6nxcl8gmdtNQCu66W4n-62" value="K1" style="endArrow=none;html=1;rounded=0;fontSize=5;exitX=0.993;exitY=0.188;exitDx=0;exitDy=0;exitPerimeter=0;labelPosition=center;verticalLabelPosition=top;align=center;verticalAlign=bottom;" edge="1" parent="1" source="g6nxcl8gmdtNQCu66W4n-5">
          <mxGeometry x="0.5407" width="50" height="50" relative="1" as="geometry">
            <mxPoint x="300" y="370" as="sourcePoint" />
            <mxPoint x="30" y="520" as="targetPoint" />
            <Array as="points">
              <mxPoint x="580" y="395" />
              <mxPoint x="580" y="330" />
              <mxPoint x="30" y="330" />
            </Array>
            <mxPoint as="offset" />
          </mxGeometry>
        </mxCell>
        <mxCell id="g6nxcl8gmdtNQCu66W4n-71" value="K2" style="endArrow=none;html=1;rounded=0;fontSize=5;entryX=0.998;entryY=0.094;entryDx=0;entryDy=0;entryPerimeter=0;labelPosition=center;verticalLabelPosition=top;align=center;verticalAlign=bottom;" edge="1" parent="1" target="g6nxcl8gmdtNQCu66W4n-5">
          <mxGeometry x="-0.2045" width="50" height="50" relative="1" as="geometry">
            <mxPoint x="150" y="650" as="sourcePoint" />
            <mxPoint x="410" y="350" as="targetPoint" />
            <Array as="points">
              <mxPoint x="150" y="340" />
              <mxPoint x="570" y="340" />
              <mxPoint x="570" y="378" />
            </Array>
            <mxPoint as="offset" />
          </mxGeometry>
        </mxCell>
        <mxCell id="g6nxcl8gmdtNQCu66W4n-80" value="" style="endArrow=none;html=1;rounded=0;fontSize=5;strokeWidth=3;" edge="1" parent="1">
          <mxGeometry width="50" height="50" relative="1" as="geometry">
            <mxPoint x="270" y="530" as="sourcePoint" />
            <mxPoint x="600" y="460" as="targetPoint" />
            <Array as="points">
              <mxPoint x="270" y="350" />
              <mxPoint x="320" y="350" />
              <mxPoint x="320" y="560" />
              <mxPoint x="600" y="560" />
            </Array>
          </mxGeometry>
        </mxCell>
        <mxCell id="g6nxcl8gmdtNQCu66W4n-81" value="GRID1" style="endArrow=none;html=1;rounded=0;fontSize=5;strokeWidth=1;exitX=0.994;exitY=0.55;exitDx=0;exitDy=0;exitPerimeter=0;labelPosition=center;verticalLabelPosition=top;align=center;verticalAlign=bottom;" edge="1" parent="1" source="g6nxcl8gmdtNQCu66W4n-5">
          <mxGeometry width="50" height="50" relative="1" as="geometry">
            <mxPoint x="580" y="500" as="sourcePoint" />
            <mxPoint x="600" y="463" as="targetPoint" />
          </mxGeometry>
        </mxCell>
        <mxCell id="g6nxcl8gmdtNQCu66W4n-82" value="GRID2" style="endArrow=none;html=1;rounded=0;fontSize=5;strokeWidth=1;exitX=0.994;exitY=0.55;exitDx=0;exitDy=0;exitPerimeter=0;labelPosition=center;verticalLabelPosition=top;align=center;verticalAlign=bottom;" edge="1" parent="1">
          <mxGeometry width="50" height="50" relative="1" as="geometry">
            <mxPoint x="557.806" y="480.4" as="sourcePoint" />
            <mxPoint x="600" y="480" as="targetPoint" />
          </mxGeometry>
        </mxCell>
        <mxCell id="g6nxcl8gmdtNQCu66W4n-83" value="GRID3" style="endArrow=none;html=1;rounded=0;fontSize=5;strokeWidth=1;exitX=0.994;exitY=0.55;exitDx=0;exitDy=0;exitPerimeter=0;labelPosition=center;verticalLabelPosition=top;align=center;verticalAlign=bottom;" edge="1" parent="1">
          <mxGeometry width="50" height="50" relative="1" as="geometry">
            <mxPoint x="557.806" y="498" as="sourcePoint" />
            <mxPoint x="600" y="497.6" as="targetPoint" />
          </mxGeometry>
        </mxCell>
        <mxCell id="g6nxcl8gmdtNQCu66W4n-84" value="GRID4" style="endArrow=none;html=1;rounded=0;fontSize=5;strokeWidth=1;exitX=0.994;exitY=0.55;exitDx=0;exitDy=0;exitPerimeter=0;labelPosition=center;verticalLabelPosition=top;align=center;verticalAlign=bottom;" edge="1" parent="1">
          <mxGeometry width="50" height="50" relative="1" as="geometry">
            <mxPoint x="557.9060000000001" y="514.7" as="sourcePoint" />
            <mxPoint x="600.1" y="514.3" as="targetPoint" />
          </mxGeometry>
        </mxCell>
        <mxCell id="g6nxcl8gmdtNQCu66W4n-85" value="GRID5" style="endArrow=none;html=1;rounded=0;fontSize=5;strokeWidth=1;exitX=0.994;exitY=0.55;exitDx=0;exitDy=0;exitPerimeter=0;labelPosition=center;verticalLabelPosition=top;align=center;verticalAlign=bottom;" edge="1" parent="1">
          <mxGeometry width="50" height="50" relative="1" as="geometry">
            <mxPoint x="557.806" y="531.4" as="sourcePoint" />
            <mxPoint x="600" y="531" as="targetPoint" />
          </mxGeometry>
        </mxCell>
        <mxCell id="g6nxcl8gmdtNQCu66W4n-86" value="" style="endArrow=cross;html=1;rounded=0;fontSize=5;strokeWidth=1;entryX=0.007;entryY=0.915;entryDx=0;entryDy=0;entryPerimeter=0;labelPosition=center;verticalLabelPosition=top;align=center;verticalAlign=bottom;endFill=0;" edge="1" parent="1" target="g6nxcl8gmdtNQCu66W4n-5">
          <mxGeometry width="50" height="50" relative="1" as="geometry">
            <mxPoint x="350" y="532" as="sourcePoint" />
            <mxPoint x="340" y="450" as="targetPoint" />
          </mxGeometry>
        </mxCell>
        <mxCell id="g6nxcl8gmdtNQCu66W4n-87" value="SEG8" style="endArrow=none;html=1;rounded=0;fontSize=5;strokeWidth=1;entryX=0.007;entryY=0.915;entryDx=0;entryDy=0;entryPerimeter=0;labelPosition=center;verticalLabelPosition=top;align=center;verticalAlign=bottom;" edge="1" parent="1">
          <mxGeometry width="50" height="50" relative="1" as="geometry">
            <mxPoint x="319.7" y="514.4300000000001" as="sourcePoint" />
            <mxPoint x="361.093" y="514.45" as="targetPoint" />
          </mxGeometry>
        </mxCell>
        <mxCell id="g6nxcl8gmdtNQCu66W4n-88" value="SEG8" style="endArrow=none;html=1;rounded=0;fontSize=5;strokeWidth=1;entryX=0.007;entryY=0.915;entryDx=0;entryDy=0;entryPerimeter=0;labelPosition=center;verticalLabelPosition=top;align=center;verticalAlign=bottom;" edge="1" parent="1">
          <mxGeometry width="50" height="50" relative="1" as="geometry">
            <mxPoint x="319.70000000000005" y="497.9000000000001" as="sourcePoint" />
            <mxPoint x="361.0930000000001" y="497.9200000000001" as="targetPoint" />
          </mxGeometry>
        </mxCell>
        <mxCell id="g6nxcl8gmdtNQCu66W4n-89" value="SEG8" style="endArrow=none;html=1;rounded=0;fontSize=5;strokeWidth=1;entryX=0.007;entryY=0.915;entryDx=0;entryDy=0;entryPerimeter=0;labelPosition=center;verticalLabelPosition=top;align=center;verticalAlign=bottom;" edge="1" parent="1">
          <mxGeometry width="50" height="50" relative="1" as="geometry">
            <mxPoint x="319.70000000000005" y="481.00000000000006" as="sourcePoint" />
            <mxPoint x="361.0930000000001" y="481.02000000000004" as="targetPoint" />
          </mxGeometry>
        </mxCell>
        <mxCell id="g6nxcl8gmdtNQCu66W4n-90" value="SEG8" style="endArrow=none;html=1;rounded=0;fontSize=5;strokeWidth=1;entryX=0.007;entryY=0.915;entryDx=0;entryDy=0;entryPerimeter=0;labelPosition=center;verticalLabelPosition=top;align=center;verticalAlign=bottom;" edge="1" parent="1">
          <mxGeometry width="50" height="50" relative="1" as="geometry">
            <mxPoint x="319.70000000000005" y="394.90000000000003" as="sourcePoint" />
            <mxPoint x="361.0930000000001" y="394.92" as="targetPoint" />
          </mxGeometry>
        </mxCell>
        <mxCell id="g6nxcl8gmdtNQCu66W4n-91" value="SEG8" style="endArrow=none;html=1;rounded=0;fontSize=5;strokeWidth=1;entryX=0.007;entryY=0.915;entryDx=0;entryDy=0;entryPerimeter=0;labelPosition=center;verticalLabelPosition=top;align=center;verticalAlign=bottom;" edge="1" parent="1">
          <mxGeometry width="50" height="50" relative="1" as="geometry">
            <mxPoint x="319.70000000000005" y="411.4500000000001" as="sourcePoint" />
            <mxPoint x="361.0930000000001" y="411.46999999999997" as="targetPoint" />
          </mxGeometry>
        </mxCell>
        <mxCell id="g6nxcl8gmdtNQCu66W4n-92" value="SEG8" style="endArrow=none;html=1;rounded=0;fontSize=5;strokeWidth=1;entryX=0.007;entryY=0.915;entryDx=0;entryDy=0;entryPerimeter=0;labelPosition=center;verticalLabelPosition=top;align=center;verticalAlign=bottom;" edge="1" parent="1">
          <mxGeometry width="50" height="50" relative="1" as="geometry">
            <mxPoint x="319.70000000000005" y="429.4500000000001" as="sourcePoint" />
            <mxPoint x="361.0930000000001" y="429.46999999999997" as="targetPoint" />
          </mxGeometry>
        </mxCell>
        <mxCell id="g6nxcl8gmdtNQCu66W4n-93" value="SEG8" style="endArrow=none;html=1;rounded=0;fontSize=5;strokeWidth=1;entryX=0.007;entryY=0.915;entryDx=0;entryDy=0;entryPerimeter=0;labelPosition=center;verticalLabelPosition=top;align=center;verticalAlign=bottom;" edge="1" parent="1">
          <mxGeometry width="50" height="50" relative="1" as="geometry">
            <mxPoint x="319.70000000000005" y="446.4500000000001" as="sourcePoint" />
            <mxPoint x="361.0930000000001" y="446.46999999999997" as="targetPoint" />
          </mxGeometry>
        </mxCell>
        <mxCell id="g6nxcl8gmdtNQCu66W4n-94" value="SEG8" style="endArrow=none;html=1;rounded=0;fontSize=5;strokeWidth=1;entryX=0.007;entryY=0.915;entryDx=0;entryDy=0;entryPerimeter=0;labelPosition=center;verticalLabelPosition=top;align=center;verticalAlign=bottom;" edge="1" parent="1">
          <mxGeometry width="50" height="50" relative="1" as="geometry">
            <mxPoint x="319.70000000000005" y="463.0000000000001" as="sourcePoint" />
            <mxPoint x="361.0930000000001" y="463.02" as="targetPoint" />
          </mxGeometry>
        </mxCell>
        <mxCell id="g6nxcl8gmdtNQCu66W4n-96" value="GND" style="edgeStyle=orthogonalEdgeStyle;rounded=0;orthogonalLoop=1;jettySize=auto;html=1;entryX=0.007;entryY=0.094;entryDx=0;entryDy=0;entryPerimeter=0;fontSize=5;endArrow=none;endFill=0;strokeWidth=1;labelPosition=center;verticalLabelPosition=top;align=center;verticalAlign=bottom;startArrow=block;startFill=0;labelBackgroundColor=none;" edge="1" parent="1">
          <mxGeometry x="-0.6804" relative="1" as="geometry">
            <mxPoint x="292" y="390" as="sourcePoint" />
            <mxPoint x="361.39300000000003" y="377.67199999999997" as="targetPoint" />
            <Array as="points">
              <mxPoint x="293" y="378" />
              <mxPoint x="333" y="378" />
            </Array>
            <mxPoint as="offset" />
          </mxGeometry>
        </mxCell>
        <mxCell id="g6nxcl8gmdtNQCu66W4n-98" value="" style="endArrow=none;html=1;rounded=0;labelBackgroundColor=none;fontSize=5;strokeWidth=3;" edge="1" parent="1">
          <mxGeometry width="50" height="50" relative="1" as="geometry">
            <mxPoint x="320" y="350" as="sourcePoint" />
            <mxPoint x="320" y="280" as="targetPoint" />
          </mxGeometry>
        </mxCell>
      </root>
    </mxGraphModel>
  </diagram>
</mxfile>
